<svg xmlns="http://www.w3.org/2000/svg" fill="none" viewBox="0 0 500 382">
  <path fill="#FF3C00" d="M226.6 217.6c6.4 6.8 15.8 16.4 22.9 23.2-1.6-10.2-2-20.7.1-30.4 1.4-6.6 3.8-12.3 6.7-17.2l-6-13.3c-1.4 2-3.8 5.8-6.2 9.5.1 0-8.5 13.8-17.5 28.2ZM254.9 263.6c-6-3.5-11.9-8.2-17.8-14.5-.1-.1-10-9.5-18.6-18.1-4.3 7-7.2 11.7-9 14.5l19.1 12.6c4.1 2.7 8.7 5.9 8.9 11.9.2 6.2-5.2 13.4-6.9 15.7-2.2 3-9.3 11.4-18.6 5.5 0 0-13.4-8.3-22.8-13.9l-7.3 10.7c6.9 1.1 44.5 7.1 75.3 12-1.6-11.9-5.5-22.8-7.9-32.3 4.1 8.9 8.5 20.3 10.9 32.7 2.1.3 4.2.7 6.2 1-.6-3.2-1.3-6-1.9-8.5-1-5.1-5.5-16-9.6-29.3ZM280.8 169.6c11-5.9 17.8-9.2 35.2-11.4-.1 0 4.3-.6 4.3-.6 3-.4 8.6-1.6 10.3-4.6.9-1.7 1.3-3.9 1.2-6.6-18.6 3.9-38 8.5-54.8 15.4-5.8 2.1-10.4 5.1-14.9 8 1.3 2.9 2.9 6.4 4.7 10.4 4.4-4.3 8.8-7.3 12.1-9.3.6-.5 1.9-1.3 1.9-1.3Z"/>
  <path fill="#311D00" d="M181.7 365.7c-18.5-.8-40.2-8.5-55.8-16.5-7.6-4.4-25.7-13.9-33-14.3 8.3 1.8 25.7 11.6 31.9 15.7 13.4 7.3 35.9 17.5 56.9 18.3 50.5 3.2 78.7-24.3 80.2-52.7-1.4-.2-2.8-.5-4.2-.7-4.1 36.1-42.3 53.3-76 50.2ZM257.4 300c1 .2 2 .3 3 .5-2.4-12.5-6.8-23.8-10.9-32.7 2.3 9.4 6.2 20.3 7.9 32.2ZM143.5 249.3c-5.4 0-10.4 2-14.1 5.8-8.2 8.4-7.6 22.8 1.3 32.1 4.5 4.8 10.7 7.5 16.8 7.6 2.2 0 4.4-.3 6.4-1l13.5-20c-.1-6-2.5-12.1-7.1-16.9-4.5-4.8-10.7-7.6-16.8-7.6Z"/>
  <path fill="#311D00" d="M115.2 308.3c18.9 24.3 52.3 24.4 69.1 6.6-7.1 3.5-37 23.1-69.1-6.6ZM207.1 327.6c1 2.3 3.3 3.9 5.9 3.9 1.9 0 3.5-.8 4.7-2.1 3.6-1.5 6.1-5 6.1-9.2 0-5.6-4.5-10-10-10.1-5.5 0-10 4.5-10 10 0 3 1.3 5.7 3.3 7.5Zm5.9 2.7c-3 0-5.5-2.5-5.5-5.5s2.4-5.5 5.5-5.5c3 0 5.5 2.5 5.5 5.5-.1 3-2.5 5.5-5.5 5.5Zm4.3-11.1c-1.4-1.6-5-2.3-7-.9-.9.6-1.9-.2-.7-1.4 2.3-2 6.6-1.9 8.5 1 1 1.5 0 2.5-.8 1.3Zm-3.2-7.3c6.5 0 11.1 8.4 5.6 14 2.4-5.1.4-11.5-5.8-11.8-6.5-.3-8.6 6.2-7.5 9.6-2.2-2-1.5-11.7 7.7-11.8Z"/>
  <path fill="#fff" d="M209.6 316.9c-1.2 1.2-.2 1.9.7 1.4 2-1.4 5.6-.6 7 .9.8 1.2 1.8.2.8-1.3-1.9-2.9-6.2-3-8.5-1Z"/>
  <path fill="#fff" d="M213.9 314.1c6.2.3 8.2 6.7 5.8 11.8 5.4-5.6.9-14-5.6-14-9.1 0-9.9 9.8-7.7 11.8-1.2-3.3 1-9.8 7.5-9.6Z"/>
  <path fill="#fff" d="M218.4 324.8c0-3-2.4-5.5-5.5-5.5-3 0-5.5 2.5-5.5 5.5 0 3.1 2.4 5.5 5.5 5.5s5.5-2.5 5.5-5.5Zm-5.5 4.3c-2.4 0-4.4-1.9-4.4-4.4 0-2.4 2-4.4 4.4-4.4 2.4 0 4.4 1.9 4.4 4.4 0 2.4-2 4.4-4.4 4.4Z"/>
  <path fill="#311D00" d="M212.9 320.4c-2.4 0-4.4 1.9-4.4 4.4 0 2.4 2 4.4 4.4 4.4 2.4 0 4.4-1.9 4.4-4.4 0-2.5-2-4.4-4.4-4.4Zm-3.2 4.5c.1-.6.4-.3.5.1 1.2 1.9 4.5 2 5.5.6.5-.7.5.3.5.3-2.1 4.1-6.8 1.5-6.5-1Z"/>
  <path fill="#fff" d="M215.7 325.6c-1 1.5-4.3 1.3-5.5-.6-.1-.4-.4-.7-.5-.1-.3 2.5 4.4 5.1 6.5 1 0 0 0-1-.5-.3Z"/>
  <path fill="#311D00" d="M122.5 324.6c-2.5 1.8-3.6 5.3-3.1 8.8-1.1 2.2-.4 5.4 1.9 7.9 2.5 2.6 6 3.4 8.2 2 2 .2 4-.3 5.4-1.5 3.6-3 3.8-8.9.5-13.6-3.3-4.6-9.1-6.3-12.9-3.6Zm-.6 15.9c-2.3-2.5-2.7-5.9-.9-7.6 1.8-1.7 5.2-1.2 7.6 1.3 2.3 2.5 2.7 5.9.9 7.6-1.9 1.8-5.3 1.2-7.6-1.3Zm9-6c-.7-1.4-2.8-3.3-4-3.5-1.2-.2-.8-2.2.7-1.7 1.4.5 3.5 2.2 4 3.1 1.3 2.3-.1 3.4-.7 2.1Zm1.6 6.9c6.7-8.7-6.3-18.8-11.5-10.8 4.4-13.1 21.6 3.4 11.5 10.8Z"/>
  <path fill="#fff" d="M127.6 329.4c-1.5-.5-1.9 1.5-.7 1.7 1.2.2 3.3 2.1 4 3.5.6 1.2 2 .1.7-2.1-.6-.9-2.7-2.7-4-3.1Z"/>
  <path fill="#fff" d="M121.1 330.6c5.1-8.1 18.2 2.1 11.5 10.8 10-7.4-7.2-23.9-11.5-10.8Z"/>
  <path fill="#fff" d="M128.6 334.2c-2.3-2.5-5.7-3-7.6-1.3-1.8 1.8-1.4 5.2.9 7.6 2.3 2.5 5.7 3.1 7.6 1.3 1.8-1.7 1.4-5.1-.9-7.6Zm-.1 7.1c-1.5 1.1-4.1.2-6-1.5-2-1.9-2.2-4.8-.8-6.1 1.6-1.5 4.4-.6 6 1.4 1.4 1.4 2.6 4.9.8 6.2Z"/>
  <path fill="#311D00" d="M121.7 333.6c-1.4 1.4-1.2 4.3.8 6.1 1.9 1.7 4.5 2.7 6 1.5 1.8-1.3.6-4.8-.8-6.3-1.6-1.9-4.4-2.8-6-1.3Zm5.5 6.9c-3.1.3-5.9-3.5-4.8-5.2 0 0 .9-1.2 1-.1.3 1.9 2.2 3.8 4.1 4.3.5.2.6.9-.3 1Z"/>
  <path fill="#fff" d="M123.4 335.2c-.2-1.1-1 .1-1 .1-1.2 1.7 1.7 5.5 4.8 5.2.9-.2.8-.9.3-1-1.8-.4-3.8-2.4-4.1-4.3ZM107.7 351.4c.6-.4 1.3-.9 1.8-1.3-8.6-5.5-19.2-9.1-36.5-3.3-.3.1-.5.2-.8.2 4.2-.8 9.9-1.8 13.5-1.5 4.6.3 11.3 1 17.7 5l-3.2 1.7c-15.1 7.3-27.8 9.4-35 9.9-7.1.5-5.7-3.6-1.1-6 2.6-1.3 4.7-3.8 5.7-8.3-.8.4-.8.2-1.9.4h-.1c-1.5 11.1-23.3 10-20.9-5.2 0 0-3.1-6.4-4.9-10.2 0 .2-.4-2.3-.2-2.4 0 0 5.3 8.6 7.5 11.4-2.9 10.3 12.2 14.6 16.2 6.9-13.3 2.5-13.8-4.3-13.6-6.6-.1-.3-.2-.7-.3-1.1-2.3-2.4-9.9-12.4-18.4-28.1-1.2 9.2 9.2 30.4 10.1 32.5l.9 2.2c-3.1 8.7 5.9 20.1 22.1 17.4 15.8-1.4 33.8-8.1 41.4-13.6Z"/>
  <path fill="#311D00" d="M334.3 323.2s-1 .2-2.7.4l1 2.1c.7 1.3 1.4 2.6 2.2 3.8 1.8-2.1 3.5-4.4 4.9-6.8-1.8.2-3.6.4-5.4.5ZM342.1 271.1c1.5 12 1.2 24.5-2.3 35.7 2.3-.2 4.6-.5 6.9-.7 1.5-5.4 2.3-11.1 2.7-17.1v-1.6l51.8 8.8s-3.4-7.7-4.3-10.3l-47.6-8.2c0-.5 0-1-.1-1.5-.1-1.9-.3-3.9-.6-5.9-2.1.4-4.3.6-6.5.8ZM254.9 263.6c4 13.3 8.6 24.3 9.7 29.4.5 2.5 1.2 5.3 1.9 8.5 2.7.4 5.4.9 7.9 1.3 0-.5 0-1-.1-1.5 8.7-6.3 15.4-16.6 19.1-26.2l-.6-1.3c-.4 0-.9 0-1.3-.1-9.1-.5-19.1-1.9-29.3-6.3 2.6 9.8 5.2 19.3 6.7 28.1-1.8-7.6-6-17.9-9.8-29.5-1.4-.9-2.8-1.6-4.2-2.4ZM249.5 240.8c1.1 1 2.1 2 3.1 2.9.3.2.5.4.8.6-3.1-15.7-3.2-32.3 4.8-47.2l-1.8-3.9c-2.9 4.9-5.3 10.6-6.7 17.2-2.2 9.7-1.8 20.2-.2 30.4Z"/>
  <path fill="#fff" d="M336.8 229c-3.1-14.6.2-41.7 10.8-49.5-15.2 1.9-19.4 40-10.8 49.5Z"/>
  <path fill="#311D00" d="m285.8 258.1-26.2-57.6c-6 15.2-5.1 31.2-2.1 46.9 8.4 5.9 16.2 9.4 28.3 10.7Z"/>
  <path fill="#fff" d="M500 344.7c-2.3-31.4-9.4-62.6-21.2-95.8l-1.4-3.4c-3-7.8-8.4-9.3-17-8.2l-7.4.8c-15.1 1.3-39.5 3.9-59.7.4l-27.6-65.4h-.7c-.6 0-1.1.1-1.6.2 7.5 17.8 32.1 76.1 32.1 76.1-4.7.9-9.9 1.2-9.9 1.2l-31.1-73c-.8.8-1.3 1.5-1.6 1.9-.2.3-.3.4-.3.4s10.4 24.8 22.1 52.6c-1.3-.7-2.6-1.4-3.4-2.1-5.5-3.4-18.1-12.5-28.7-28.4 0 0-.1.2-.2.7-.1.5-.3 1.4-.5 2.5 14.7 22.6 34.4 31 34.4 31l4.9 12c-19.6-5.7-36-23.5-40.6-28.8v2.8c11.1 14.1 25.7 24.1 41.2 29.3-11.5 1.5-24.1 2.9-36 4.2-2.3.2-4.5.5-6.7.7-1.5-5.9-3.4-11.4-5.5-16.4-11.1-26.2-41.4-14.2-39.2 1.6-9.2-20.4-18.6-41.1-25.6-56.6 2.7-2.9 8.2-8.5 17-14.2-6.2 2.7-11.1 7-11.1 7-2.4 1.9-4.6 3.8-6.6 5.8-.5-1.2-1-2.3-1.5-3.4-1.8-4-3.4-7.5-4.7-10.4 4.5-2.9 9.1-5.9 14.9-8 16.8-6.8 36.2-11.5 54.8-15.4 1-.2 2.1-.4 3.1-.6.6 9.3-4.1 12.8-12.2 14.5-5.3 1.1-9.6 1.3-11.7 2l5 .2c.3 0 5.8 0 13.5-2.7 5-1.9 8.8-5.3 7.2-14.4.9-.2 1.7-.4 2.6-.5 1.4 8.7.1 17-16.7 18.7 2.9 2 29-2.9 44.8.7.4.2 7 2.4-.6 5.7 14.6-3.2 15.4-17.8 12.6-28.6l.6.1c2.7.2 5.1.5 6.9.9 1.4.2 3.1.3 4.9.6 10.9 1.1 9.9-11.8 4.2-13.4-4.4-1.3-5.5-1.3-6.6-1.5l-1.5-.2-13.6-30.3 7.5-3.5 19.4 35c9 14.3-5.9 20.2-14.2 15.9-1.1.6-1.9 1.1-2.5 1.7 2.3 1.6 5.3 2.5 8.5 2.5 5.5 0 10.2-2.5 12.4-6.5 1.6-2.9 2.6-7.9-1.8-14.9L383 90.5l-16.5 7.3c1.3.3 2.2.8 2.7 1.8l2.9-1.2 12.8 28.8c-1.6-.3-5.9-.7-7-.8l-3.2-.1c-2.8-8.5-6.4-19.4-8.9-25.8-1.4-.3-3.9-.4-4.6-.4 0 .1.1.1.1.2 1.9 3.6 7.8 21.8 9.8 26.8 2.7 6.9 2.5 10.8 2.5 10.8l-12.7-.2c-.2-3.7-3.7-10.7-3.7-10.7l-4.7-9.5-1.3-2.7-4.9-10.3c-.5-1.2-1.4-3.6-1.7-5.7-.8-6.7 5.7-6.7 5.9-6.7 3.4.1 6.2 1.3 8.9 5.2h1.8c-3.9-7.9-6.2-10.3-8.8-14.6C303.2 12.5 221.3-8.2 149.3 9.3c91.3-13.4 161 25.9 195.8 84.7-2.9 1.4-7.7 3.9-10 5.1-1 0-4.7-.1-6 0-2.2.2-4.2.3-2.7 5.4 1.1 3.8 1.5 4.7 2.4 7.1 1 2.8 4.3 11.4 6.8 18.6-.8.2-1.7.3-2.5.5-.4-1.3-.9-2.6-1.5-4.1-2.8-7.2-6.3-16.6-7.3-19.8-.5-1.6-1.3-4.8-.4-7.5 0 0-3.5 2.7-.4 10l7.8 21.6c-1.1.2-2.1.4-3.2.6-23.7 4.7-46.8 11-59.8 16.5 0 0-9.7 3.5-16.7 9.2-.3.2-.4.4-.4.5-2 .6-3.9 1.9-5.1 3.6-1 .8-3.2 2.6-4.2 3.7-2.7 3.2-5.1 5.9-8.2 10.2-2.7 4-12.3 19.2-20.8 33-.7.3-1.5.7-2.1 1.2-2.3 1.8-3.7 4.9-3.2 8-6.9 11.3-11 17.8-12.7 20.5-3.8.3-5.8 3.3-5.9 3.7-1.7 3.4-9 15.3-10.3 16.6-.8.8-2.5 4-1.8 7.6l-.7 1.3-16 23.9c-1.4 2-1.6 4.1-.6 6.2 1.3 2.8 4.6 4.9 8 5.1 1.8.1 3.5-.3 4.8-1.3 6.5 1.1 51.4 8.6 85.2 14.2 1.4.2 2.8.5 4.2.7 2.3.4 4.5.8 6.7 1.1 1.9.3 3.7.6 5.4.9-.8 9.8-3.3 18.4-7 25.8l1.5.2c23.5 1.9 40.3-2.3 51.9-10.1 1 1.9 2.1 3.7 3.2 5.5 11.3 18 28.5 29.9 51.1 35.9 23.1 6.1 49.4 5.5 74.7-1.9 3 1.5 5.9.6 7.9-.4.6-.3 1.1-.7 1.5-1.1 27.4-6.2 32-8.5 33.7-10 .2-.1.4-.2.5-.3 7.5-4.2 7.1-16.2 7.1-16.8Zm-39.4-6.3c-1.1-11.2-3-22.7-5.5-33.9 6.3-1.2 18-4.1 22.2-5.2l.3 1.8c2.2 11.9 5.5 29.9 6.8 40.9.1 1.1 0 2-.2 2.7-2.1-.4-3.7-.5-4.1-.5-6.7-1.1-13.3-3.1-19.5-5.8Zm1.1-86h.6c2.2 5 5.6 15.7 6.5 19.5l2.1 8.4c-6.6 1.5-13.9 2.6-21.2 3.3-2.9-9.5-6.1-18.5-9.4-26.5 16.3-2.3 21.4-4.7 21.4-4.7Zm16.8 43.6s-4.2 2.1-23.4 5.6c0 0-1.6-6-2.3-9.1 0 0 16.3-3.4 22.6-5.8 0 0-.1-2.1-3.3-2.1 0 0-16.5 4.2-20.3 4.5l-.9-2.5s14.1-2.7 18.9-3.8c0 0 10-3.4 12.2 4.2 0 0 2.2 6.6-3.5 9Zm-2.3-45.1c12.8 35.8 22.7 84.8 19.8 101.8 0-2.2-3.4-6.2-9.2-7.4 0 0 .1-2.2-.1-5-1.5-14.8-6.8-41.6-6.8-41.6 8.2-2.7 7.5-19.5-6.5-19.4-3.4-15.2-8.3-27.4-8.3-27.4 7.6-4.2 4.1-11.2-.1-12.5.1-.1 7.7-1.7 11.2 11.5Zm-14.2-10c2.6.4 3.7 2 4 4.1.1.8-.3 3.8-3.6 4.4l-1.2.3c-3 .9-8.9 2.3-14.9 3.5-3.7.7-7.1 1.4-6.8 1.2-.8-1.7-1.3-3.5-3.6-7.9 6.6-1.1 15-2.8 20.8-4.5 1.9-.6 5.3-1.1 5.3-1.1Zm-12.8.1c-2.7 1.1-15.4 2.7-15.4 2.7-1.7-1.4-3.4-1.6-3.9-1.6h-.1.1c4.9.3 19.3-1.1 19.3-1.1Zm-26.7 1.8c-2.7.4-2.9 2.9-2.9 2.9-6.5 1.6-21.6 3.3-21.6 3.3l-3.1-7.1c15.8 2.2 27.6.9 27.6.9Zm-28.1-111.1h.2c1.9.3 3 2.7 2.9 4.8-.1 1.1-.8 3.6-4.5 3.6-3.4-.7-12.3-1.6-16.8-2 0-3.8-2.3-9.3-2.3-9.3 4.9.5 17.8 2 20.5 2.9Zm-34 10.5s7.6 0 11.5.1c0 0-2.9 5.4-14.9 4.5 0 0 3.2-2.2 3.4-4.6Zm-21-43.3 3.3-1.7s.3-.2.3-.1c-.2.4-.1 1.2-.1 1.2-.1 1.1 0 1.7 1.2 5 1.9 5.2 12 26 13.1 29.1 5.8 15.1-9.2 17.9-10.8 11.2 16-1.2 9.5-17.9.4-15.6-3.5-8.5-6.2-17.1-6.2-17.1s-3.6-9.1-1.2-12Zm-1.4 12.3 6.2 17.4-3.3.6s-4-11.2-6.6-18.9c-1.9-5.9-.5-8.7-.5-8.7l3-1.4c-1.3 4.3 1.2 11 1.2 11Zm-69 39.9c16.1-6.7 49.4-15.3 78.3-20 3.1-.4 5.6 1.7 6 3.9.3 2-.7 4.3-4.5 4.9l-1.8.3c-23.1 4.6-49.2 9.8-71.1 18.7-6.9 2.5-10.5 4.6-14.4 7.5 0 0-2.1-4.6-2.9-6-1.2-2.2-1.4-2.4-2.4-2.9 3.2-2 7.3-4 12.8-6.4Zm-20.8 12.6c1.2-2.1 3.7-3.3 5.3-3.2 1.2 0 2.2.4 2.3.5l44.2 97.9s-6.1.3-10.9-.7c-18.8-41.2-40.9-89.5-40.9-89.6-1-1.7-1-3.3 0-4.9Zm8.2 29.6 1.8 3.9c-7.9 14.9-7.8 31.4-4.8 47.2-.3-.2-.5-.4-.8-.6-.9-.9-2-1.9-3.1-2.9-7.1-6.8-16.5-16.4-22.9-23.2 8.9-14.4 17.5-28.2 17.5-28.2 2.3-3.7 4.8-7.4 6.2-9.5l6.1 13.3Zm3.2 7.2 26.2 57.6c-12.1-1.4-19.9-4.9-28.2-10.7-3.1-15.7-4-31.7 2-46.9Zm-23.4-23.4c2.9-4.7 9.7-12.8 8.8-11.7 0 0-.2 2.4 1.1 5 1 2.1 3.1 7.2 3.1 7.2.3-.3-4.7 5.9-7.4 10.3L225 215.5l-4.5-5s-1.9-2.3-3.7-2.3c8.6-14.4 16.6-27.1 19.4-31.1Zm26 90.2c10.2 4.4 20.2 5.7 29.3 6.3.4 0 .8.1 1.3.1l.6 1.3c-3.6 9.6-10.3 20-19.1 26.2 0 .5.1 1 .1 1.5-2.5-.4-5.2-.8-7.9-1.3-2-.3-4.1-.6-6.2-1-1-.2-2-.3-3-.5-30.8-4.9-68.4-10.9-75.3-12l7.3-10.7c9.4 5.6 22.8 13.9 22.8 13.9 9.2 5.9 16.3-2.6 18.6-5.5 1.7-2.3 7.1-9.5 6.9-15.7-.2-6-4.8-9.2-8.9-11.9l-19.1-12.6c1.8-2.9 4.6-7.5 9-14.5 8.6 8.6 18.5 18 18.6 18.1 5.9 6.4 11.9 11.1 17.8 14.5 1.4.8 2.8 1.6 4.2 2.3 3.8 11.6 8 21.9 9.8 29.5-1.5-8.8-4.2-18.3-6.8-28Zm152.9 29.3c-1.6.7-9.6 1.9-9.6 1.9-1.9-3.6-14-33.2-14-33.2 1.4-.2 9.5-1.5 9.5-1.5 6.2 17.1 14.1 32.8 14.1 32.8Zm2.4-.7-3.6-8.4c12.2.2 20.9.1 20.9.1 1.5 5.4-3.6 5.6-3.6 5.6l-13.7 2.7Zm-4.7-11-9.2-21.9c6.2-1 11.9-1.9 17-2.9h.2c1.3-.4 2.4-.4 3.2 0 1.3.7 1.8 2.3 1.8 2.3v.2c2 5.2 5.8 16.3 7.7 22.1-7.8.3-15.1.3-20.7.2Zm-16.7-1.3-46.8-8.2v.8c0 .5 0 1 .1 1.5l47.6 8.2c.9 2.6 4.3 10.3 4.3 10.3l-51.8-8.8V289.8l51.1 8.7c-17 2.9-34.7 5.6-53.7 7.6-2.3.2-4.6.5-6.9.7 3.4-11.2 3.8-23.7 2.3-35.7 2.2-.2 4.4-.5 6.6-.7 13.2-1.5 26.9-3.2 39.7-5.1 2.6 6.6 5.2 12.8 7.5 18.3Zm-73.8 24.8s-4.1.8-11 .2c-3.3-6.2-6.9-14.6-16.1-34.7 6.3.7 11 .1 11 .1l16.1 34.4Zm-94.8-45c-4.2-2.8-20.5-13.7-20.5-13.7l1.7-1.7c7.4 4.7 17 11.1 21.2 14.3 7.5 5.7 3.4 12.5 3.4 12.5.8-4-1-8.1-5.8-11.4Zm-31.1-22.1.1-.2c.2-.3 2.7-4.5 12.3-20.1 2.9 4 7.5 8.2 7.5 8.2l-11.7 18.5c-1.6 1.2-4.9 0-6.9-2-.4-.4-2.7-2.8-1.3-4.4Zm-3.7.9c-.3 5.5 8.1 9.9 12.1 8.9l21.4 14.3c3.2 2.3 6.4 6.2 4.5 11.6-.3-5-6.5-8.9-6.5-8.9s-23-13.5-30-17.9c-4-2.7-3.6-6.2-1.5-8Zm-10.7 17c4.2-6 6.3-9.4 7.2-10.9.9 2 3.7 3.6 3.7 3.6 7.1 4.5 22 13.5 26.3 15.9 4.6 2.6 5.6 3.8 5.6 3.8 5.4 5.1 4.3 10.2 1.7 13.7-3 4-8.7 6.5-13.4 3.4l-6.4-4-2.3-1.4-20-12.3h-.2s-3.3-1.5-4.2-4.6c-.5-2.2.2-4.5 2-7.2Zm-13.9 40.3c-2.3-.1-4.7-1.6-5.6-3.5-.5-1.1-.4-2.2.4-3.3l15.2-23.3c1 1.8 8.6 6.4 8.6 6.4-3.2 4.8-14.7 21.8-14.7 21.8-1 1.8-2.7 2-3.9 1.9Zm280.7 70.8s.1.3-3.7 1.6c-23.5 6-48.7 6.4-69.9.8-19.2-5.1-42-16.2-54.6-44.2 0 0-1.6-3-2-4.5 0 0 6.5.1 10.7-.2 19.6 42 70.2 49.8 113.5 38.7 0 0 4-.7 5.1-1.9.9-2.1.8-7.4.8-7.4-.1-1.2-1.1-27.1-5.8-44.3-.4-1.8-1-2.9-1.5-3.4 0 0-1.3-.5-2.2-.6-2.3-.1-5.4.6-5.4.6-26.7 6.4-68.1 11.6-100.7 14.9-.1 0-2.6.4-7 .6l-3.5.1c-6.2.1-15-.3-26-2.1 0 0-121.7-19.8-121.2-19.8l6.5-8.9s117.1 19.2 117.2 19.2c17.9 2.7 26.2 1.4 26.4 1.3 31.6-1.8 89.9-10.4 104-14.2 0 0 7.6-1.8 8.6-2.8.6-.6-1-6.4-1-6.4-.1-.2-5.8-18.9-8.6-26.1v.2c-.1-.3-1.3-4.3-2.6-4.9h-1s-1.7.3-3.7.8c-27.5 5-77.8 12-107.3 13.8 2.6-.2-11.9.5-23.2-.3-16.1-.9-33.9-4.9-51.6-24.1-.2-.2-19.8-18.9-27.7-27.5-2-2.8-.9-5.9 1.1-7.5 1.5-1.2 4.4-1.7 6 .2 3.5 4.6 23.3 25.1 33.1 34.3 10.9 8.5 18.7 12.9 33.8 14.6 8.2 1 17.9.8 18.4.9 20 .5 92.8-8.4 114.2-12.6 2.7-.4 4.3-1 4.3-1v-.4l.1-.9c0-.3 1.3-1.3 2.3-1.8 2-.9 4.6-.9 6.8.9 15.3 28.1 30.3 80.4 26.9 119.9-.2 2.1-1 3.8-2.6 4.6 0 .1-3.5 1.7-7-.2Zm-36.7-57.1c2-.4 10.2-2.2 10.2-2.2 8.7 13.1 22.7 22.5 22.7 22.5.4 3.3.7 11.6.7 11.6-22-10.7-33.6-31.9-33.6-31.9Zm13.3-3.1c4.5-.9 8.7-1.8 12.6-2.7 1-.3 1.4 0 1.5.1.7.5 1 1.8 1 2.2V310c1.4 5.1 2.6 12 3.4 18.8-7.2-5.3-13.5-11.6-18.5-18.7Zm20.4 38.4c.3 3.8.4 6.2.4 6.3 0 3.2-1.8 4.3-2 4.4-40.1 10.9-87.7 5.3-109.2-29.7-.8-1.2-1.5-2.5-2.2-3.8l-1-2.1c1.7-.2 2.7-.4 2.7-.4 1.8-.2 3.6-.4 5.5-.6 21.5-2.3 47.1-5.7 69.3-9.5 9.5 17.6 22.9 29.1 36.5 35.4Zm15.4 20.4c.9-4 .7-10.4.7-10.4 32.1-6.9 1.6-9.8 1.6-9.8 7.1 2.2 6.9 4.7 6.9 4.7-3.1.2-8.5-1.4-8.5-1.4.2-2-.4-10.2-.4-10.2 8.3 3.6 9.7 2.6 18.3 4.5 8.9 2 4.5 5.6 4.5 5.6-4.5 5.6-21.2 8-21.2 8 27.9-3.6 25.4-11.3 25.4-11.3 11.4 7.4.2 12.7-5.6 14.3-5 1.7-21.7 6-21.7 6Z"/>
  <path fill="#fff" d="M206.9 280s.3.9 1 2.2c.6 1.1 1.6 2.2 2.8 2.9 8.4 5 13-1.4 13.1-1.4 0-.1 3.9-5.1-1.7-10.6-.1-.1-3.6-3.2-8.2-2.6-.5-1.9-2.9-7.3-9.9-7.1-5.6.4-6.9 3.4-7.5 5.1 0 0-1.4 3.8.7 7.1-.1.2 2.6 5.5 9.7 4.4Zm7.4-8.1c6.3-.2 11.2 6.1 8 10.7l-1.1.2c-5.5.7-8.6-1.5-9.5-6.3.9-.6 2.3-2.3 2.6-4.6Zm-7.3-6.7c3.1 1 5.4 3.7 5.2 6.5h.4c-.3 2-2.4 4.8-6.8 4.2-.2-.9-.3-1.8-.3-2.8.7.3 1.5.4 2.4.3 0-.4.1-1.3.1-1.3-.9-.1-1.6-.4-2.5-.7 0-2.2.5-4.4 1.5-6.2Zm-7.3 1.4c1.4-1.2 2.5-1.7 4.6-1.6-.9 1.4-1.2 3.5-1.3 5.6-.4-.4-.8-.4-1.2-.8v1.5c.3.5.7.6 1.3 1 0 1.3.1 2.3.3 3.2-.3-.1-.5-.3-.8-.5-4.4-2.5-2.9-8.4-2.9-8.4Zm-1.6 1.9c-.7 9.1 7.6 10.4 12.2 8.7 1 7.3 7.4 7.5 10.5 7-3.9 2.5-11.3.8-12.7-6.1-5.9 1.8-12.5-2.9-10-9.6Z"/>
  <path fill="#311D00" d="M354.6 107.7c-1.9-1.2-4.7-5.2-4.2-8.5 4.3 0 5.5 6.3 4.2 8.5ZM359 119.4c-2.2-2.2-3.3-4.5-3.5-8 3.4.7 5.6 5 3.5 8ZM340.6 111s2.7 8.5 6.2 17.1c9.1-2.4 15.5 14.3-.4 15.6 1.6 6.7 16.6 3.9 10.8-11.2-1.2-3-11.2-23.9-13.1-29.1-1.2-3.3-1.3-3.9-1.2-5 0 0 0-.9.1-1.2l-.3.1-3.3 1.7c-2.4 2.8 1.2 12 1.2 12Z"/>
  <path fill="#311D00" d="M333.9 101.6s-1.4 2.9.5 8.7c2.5 7.7 6.6 18.9 6.6 18.9l3.3-.6-6.2-17.4s-2.6-6.7-1.2-11l-3 1.4ZM371.9 142.2c-3.9-.1-11.5-.1-11.5-.1-.2 2.4-3.5 4.6-3.5 4.6 12.2.9 15-4.5 15-4.5ZM220.4 210.5l4.5 5 16.8-27.6c2.8-4.4 7.8-10.6 7.4-10.3 0 0-2.1-5.2-3.1-7.2-1.3-2.6-1.1-5-1.1-5 .9-1.1-5.9 7-8.8 11.7-2.7 4.1-10.8 16.8-19.6 31.1 1.9-.1 3.9 2.3 3.9 2.3ZM449.2 241s-14.4 1.4-19.3 1.1c.4 0 2.2.2 3.9 1.6 0 0 12.7-1.6 15.4-2.7ZM434.7 287.6s-8.8.1-20.9-.1l3.6 8.4 13.7-2.7c.1 0 5.1-.2 3.6-5.6ZM401 263.8s-8.1 1.3-9.5 1.5c0 0 12.1 29.6 14 33.2 0 0 8-1.2 9.6-1.9 0 0-7.9-15.7-14.1-32.8ZM422.3 311s-8.2 1.8-10.2 2.2c0 0 11.6 21.2 33.6 32 0 0-.3-8.4-.7-11.6 0-.1-14-9.5-22.7-22.6ZM488.6 348.8s2.5 7.6-25.4 11.3c0 0 16.7-2.4 21.2-8 0 0 4.3-3.6-4.5-5.6-8.6-1.9-10-.9-18.3-4.5 0 0 .5 8.2.4 10.2 0 0 5.4 1.6 8.5 1.4 0 0 .2-2.5-6.9-4.7 0 0 30.5 2.9-1.6 9.8 0 0 .2 6.4-.7 10.4 0 0 16.6-4.4 21.8-5.8 5.7-1.8 17-7.1 5.5-14.5ZM295.3 273.9c9.2 20.2 12.8 28.6 16.1 34.7 6.9.5 11-.2 11-.2l-16-34.4c-.1-.1-4.9.6-11.1-.1ZM289.1 258.1c4.8 1 10.9.7 10.9.7l-44.2-97.9c-.1-.1-1.1-.5-2.3-.5-1.6 0-4.1 1.2-5.3 3.2-.9 1.6-.9 3.2 0 4.8 0 .2 22 48.5 40.9 89.7Z"/>
  <path fill="#311D00" d="M458.5 366c3.5-39.5-11.6-91.8-26.9-119.9-2.2-1.8-4.8-1.8-6.8-.9-1 .5-2.3 1.5-2.3 1.8l-.1.9v.4s-1.6.6-4.3 1c-21.4 4.2-94.2 13.1-114.2 12.6-.5 0-10.2.1-18.4-.9-15.2-1.7-23-6.1-33.8-14.6-9.8-9.2-29.6-29.6-33.1-34.3-1.6-1.9-4.5-1.4-6-.2-2.1 1.6-3.1 4.7-1.1 7.5 7.9 8.6 27.5 27.3 27.7 27.5 17.7 19.2 35.5 23.2 51.6 24.1 11.3.8 25.8.1 23.2.3 29.5-1.8 79.8-8.8 107.3-13.8 2.1-.5 3.7-.8 3.7-.8h1c1.3.6 2.5 4.6 2.6 4.9v-.2c2.9 7.2 8.6 25.9 8.6 26.1 0 0 1.6 5.7 1 6.4-1 1-8.6 2.8-8.6 2.8-14.1 3.8-72.5 12.4-104 14.2-.2 0-8.5 1.3-26.4-1.3L182 290.4l-6.5 8.9c-.5 0 121.2 19.8 121.2 19.8 11.1 1.8 19.8 2.1 26 2.1l3.5-.1c4.4-.2 6.9-.6 7-.6 32.6-3.3 74-8.6 100.7-14.9 0 0 3-.6 5.4-.6.9 0 2.2.6 2.2.6.5.4 1 1.5 1.5 3.4 4.8 17.2 5.8 43.1 5.8 44.3 0 0 .1 5.4-.8 7.4-1.1 1.2-5.1 1.9-5.1 1.9-43.3 11.1-93.9 3.3-113.5-38.7-4.2.4-10.7.2-10.7.2.4 1.5 2 4.5 2 4.5 12.6 28 35.4 39.1 54.6 44.2 21.2 5.6 46.4 5.2 69.9-.8 3.8-1.3 3.7-1.6 3.7-1.6 3.5 1.8 7 .2 7 .2 1.5-.8 2.4-2.5 2.6-4.6Z"/>
  <path fill="#311D00" d="m184.2 270.9.1.1 20 12.3 2.3 1.4 6.4 4c4.7 3.2 10.4.6 13.4-3.4 2.6-3.5 3.6-8.6-1.7-13.7 0 0-.9-1.2-5.6-3.8-4.3-2.4-19.2-11.4-26.3-15.9 0 0-2.8-1.6-3.7-3.6-.9 1.6-3 5-7.2 10.9-1.9 2.6-2.5 5-2 7.1 1 3.1 4.3 4.6 4.3 4.6Zm12.2-2.3c.6-1.7 1.9-4.8 7.5-5.1 7-.2 9.4 5.2 9.9 7.1 4.6-.6 8.1 2.5 8.2 2.6 5.6 5.5 1.8 10.5 1.7 10.6 0 .1-4.7 6.4-13.1 1.4-1.1-.7-2.2-1.7-2.8-2.9-.7-1.3-1-2.2-1-2.2-7.1 1.1-9.8-4.2-9.9-4.3-1.9-3.4-.5-7.2-.5-7.2ZM229.9 262.3c-4.2-3.2-13.9-9.5-21.2-14.3l-1.7 1.7s16.3 10.9 20.5 13.7c4.8 3.2 6.6 7.3 5.9 11.4 0 .1 4-6.8-3.5-12.5Z"/>
  <path fill="#311D00" d="M194.2 250c7 4.4 30 17.9 30 17.9s6.2 4 6.5 8.9c1.9-5.3-1.3-9.3-4.5-11.6L204.8 251c-4 1.1-12.4-3.3-12.1-8.9-2.1 1.9-2.5 5.4 1.5 7.9ZM211.7 276.5c.9 4.9 4 7.1 9.5 6.3l1.1-.2c3.2-4.6-1.8-10.9-8-10.7-.3 2.3-1.7 4-2.6 4.6Z"/>
  <path fill="#311D00" d="M208.1 278.1c1.4 6.9 8.8 8.6 12.7 6.1-3.1.5-9.5.3-10.5-7-4.6 1.7-12.9.4-12.2-8.7-2.5 6.7 4.1 11.4 10 9.6ZM456.8 241.9c-5.8 1.7-14.2 3.4-20.8 4.5 2.3 4.4 2.8 6.2 3.6 7.9-.3.2 3.1-.5 6.8-1.2 6-1.1 11.9-2.5 14.9-3.5l1.2-.3c3.3-.6 3.7-3.6 3.6-4.4-.3-2.1-1.4-3.6-4-4.1-.1.1-3.5.6-5.3 1.1ZM469.8 282.8c-4.7 1.1-18.9 3.8-18.9 3.8l.9 2.5c3.8-.4 20.3-4.5 20.3-4.5 3.1-.1 3.3 2.1 3.3 2.1-6.3 2.4-22.6 5.8-22.6 5.8.7 3.1 2.3 9.1 2.3 9.1 19.2-3.4 23.4-5.6 23.4-5.6 5.6-2.4 3.5-8.9 3.5-8.9-2.2-7.7-12.2-4.3-12.2-4.3Z"/>
  <path fill="#311D00" d="M465.2 251.8s4.9 12.2 8.3 27.4c14-.1 14.8 16.7 6.5 19.4 0 0 5.3 26.9 6.8 41.6.2 2.7.1 5 .1 5 5.8 1.2 9.2 5.3 9.2 7.4 2.8-16.9-7.1-66-19.8-101.8-3.5-13.2-11.1-11.6-11.1-11.6 4.1 1.4 7.7 8.4 0 12.6ZM419.6 245.7s.2-2.5 2.9-2.9c0 0-11.8 1.3-27.6-.9l3.1 7.1s15.1-1.7 21.6-3.3ZM172 297.7s11.5-17.1 14.7-21.8c0 0-7.7-4.6-8.6-6.4l-15.2 23.3c-.8 1.1-.9 2.2-.4 3.3.9 1.8 3.3 3.3 5.6 3.5 1.2 0 2.9-.2 3.9-1.9ZM258.6 160.5c.8 1.3 2.9 6 2.9 6 3.9-2.9 7.5-5 14.4-7.5 21.9-8.9 48-14.1 71.1-18.7l1.8-.3c3.8-.6 4.8-2.9 4.5-4.9-.3-2.2-2.9-4.3-6-3.9-28.8 4.7-62.2 13.3-78.3 20-5.5 2.3-9.6 4.3-12.8 6.5 1 .5 1.2.7 2.4 2.8ZM204.7 247.7l11.7-18.5s-4.6-4.2-7.5-8.2c-9.6 15.6-12.1 19.8-12.3 20.1l-.1.1-.1.1c-1.4 1.6.9 4 1.4 4.4 2 2 5.3 3.3 6.9 2ZM376.1 138.1c4.5.4 13.4 1.3 16.8 2 3.8 0 4.4-2.5 4.5-3.6.2-2-.9-4.5-2.9-4.8h-.2c-2.7-.9-15.6-2.4-20.6-2.9.1.1 2.4 5.5 2.4 9.3Z"/>
  <path fill="#311D00" d="m401.2 129.1-19.4-35-7.5 3.5 13.6 30.3 1.5.2c1.1.2 2.2.2 6.6 1.5 5.7 1.7 6.7 14.5-4.2 13.4-1.8-.2-3.5-.4-4.9-.6-1.9-.3-4.2-.7-6.9-.9l-.6-.1c2.8 10.8 2 25.4-12.6 28.6 7.5-3.3.9-5.6.6-5.7-15.7-3.6-41.9 1.2-44.8-.7 16.8-1.6 18.1-10 16.7-18.7-.9.2-1.7.4-2.6.5 1.6 9.1-2.2 12.5-7.2 14.4-7.7 2.6-13.2 2.7-13.5 2.7l-5-.2c2.2-.7 6.5-.9 11.7-2 8.1-1.7 12.8-5.2 12.2-14.5-1 .2-2.1.4-3.1.6.1 2.7-.2 4.9-1.2 6.6-1.6 2.9-7.3 4.1-10.3 4.6 0 0-4.4.6-4.3.6-17.4 2.2-24.2 5.5-35.2 11.4 0 0-1.4.9-2 1.3-3.3 2-7.7 5-12.1 9.3.5 1.1 1 2.2 1.5 3.4 2-2 4.2-3.9 6.6-5.8 0 0 4.9-4.3 11.1-7-8.8 5.7-14.3 11.2-17 14.2 7 15.5 16.4 36.2 25.6 56.6-2.1-15.8 28.2-27.8 39.2-1.6 2.1 5 4 10.6 5.5 16.4 2.2-.2 4.4-.4 6.7-.7-.7-2.9-1.5-5.9-2.5-8.8-1.6-6.7-2.8-16.1-2.8-26v-1.5c4.6 5.3 21 23.1 40.6 28.8l-4.9-12s-19.8-8.4-34.4-31c.2-1.1.4-2 .5-2.5 1.7-8.3 4.6-16.1 9.4-22.1.3-.4.6-.7.9-1.1.3-.4.8-1.1 1.6-1.9l31.1 73s5.2-.4 9.9-1.2c0 0-24.6-58.3-32.1-76.1.5-.1 1-.1 1.6-.2.2 0 .5-.1.7-.1.5 0 .9-.1 1.1-.1 7.4-1.3 11.3-4.7 14.2-9.8 2.4-4.4 2.8-10.3 2.4-15 .4-.5.8-1 1.3-1.4.6-.6 1.4-1.1 2.5-1.7 8.3 4.3 23.3-1.6 14.2-15.9ZM336.8 229c-8.6-9.5-4.4-47.6 10.8-49.5-10.6 7.8-14 35-10.8 49.5ZM207.8 273.5c-.9 0-1.7-.1-2.4-.3 0 1 .1 1.9.3 2.8 4.4.7 6.5-2.1 6.8-4.2h-.4c.2-2.8-2.1-5.5-5.2-6.5-1 1.8-1.5 3.9-1.5 6.3.8.4 1.6.7 2.5.7 0 0-.1.8-.1 1.2ZM202.6 275c.3.1.5.4.8.5-.3-.9-.3-1.9-.3-3.2-.6-.4-1-.5-1.3-1v-1.5c.4.5.8.5 1.2.8.1-2.1.5-4.2 1.3-5.6-2.1-.1-3.2.4-4.6 1.6 0 0-1.5 5.9 2.9 8.4Z"/>
  <path fill="#FF3C00" d="M320.9 111c-.4-.9-1-2.5-1.4-4.4-.4-1.6-.5-3.4-.2-5.1.2-.8.4-1.6.9-2.3.1-.2.3-.3.4-.5.3-.4.6-.7 1-1 .2-.2.4-.3.6-.5-10.8-18.3-27.3-36.8-48.3-52C256.5 32.7 236 22.4 213 16.4c-.3-.1-.5-.2-.8-.2-.2 0-.3-.1-.5-.1-23.3-5.9-49.1-7.5-76.9-2.8C95.9 26 60.8 50 36.6 83.6c-.2.3-.4.5-.6.8-.1.1-.2.3-.3.4-29 41-41.7 96-25.2 161.8 12.6 45.8 27.3 70 43.2 92.8 0 0-.7 11 18.3 5.3 4.3-1.3 8.2-2.3 11.9-2.9 11.1-1.7 20.4.6 33.9 10.7.8.6 1.6 1.2 2.5 1.8 31.7 22.1 83.9 31.8 117.8 14.1 8.7-4.5 16.2-10.9 21.8-19.3l.2-.4c2.6-3.6 4.1-7 5.5-10.8 2.5-6.9 3.1-13.9 2.9-20.5-2.1-.4-4.4-.7-6.7-1.1-1.5 28.5-29.7 55.9-80.2 52.7-21-.8-43.5-11-56.9-18.3-6.2-4.1-23.5-13.9-31.9-15.7 7.2.4 25.4 9.9 33 14.3 15.6 8 37.3 15.7 55.8 16.5 33.7 3.2 71.9-14.1 76-50.2-33.8-5.6-78.7-13.1-85.2-14.2-1.3.9-3 1.4-4.8 1.3-3.4-.2-6.7-2.3-8-5.1-1-2.1-.8-4.3.6-6.2l16-23.9.7-1.3c-.8-3.7 1-6.9 1.8-7.6 1.3-1.3 8.6-13.3 10.3-16.6.2-.4 2.1-3.4 5.9-3.7 1.7-2.7 5.8-9.2 12.7-20.5-.6-3.2.9-6.3 3.2-8 .7-.5 1.4-.9 2.1-1.2 8.6-13.9 18.2-29.1 20.8-33 3.1-4.2 5.5-7 8.2-10.2 1-1.1 3.2-2.9 4.2-3.7 1.3-1.7 3.2-3.1 5.1-3.6 0-.2.1-.3.4-.5 6.9-5.6 16.7-9.2 16.7-9.2 13-5.4 36.2-11.7 59.8-16.5-1.7-4.8-6.9-19.9-6.9-19.9.1-.2-.1-.5-.3-1ZM213.8 310.1c5.5 0 10 4.5 10 10.1 0 4.1-2.5 7.6-6.1 9.2-1.2 1.3-2.9 2.1-4.7 2.1-2.6 0-4.9-1.6-5.9-3.9-2-1.8-3.3-4.5-3.3-7.5 0-5.5 4.5-10 10-10Zm-78.9 31.7c-1.4 1.2-3.4 1.7-5.4 1.5-2.3 1.4-5.7.6-8.2-2-2.3-2.4-3-5.7-1.9-7.9-.5-3.5.6-7.1 3.1-8.8 3.8-2.7 9.6-1 12.9 3.7 3.3 4.7 3.1 10.5-.5 13.5Zm49.4-26.9c-16.8 17.8-50.1 17.7-69.1-6.6 32.1 29.7 62 10.1 69.1 6.6Zm-30.4-21.2c-2 .7-4.2 1-6.4 1-6.2 0-12.3-2.8-16.8-7.6-8.9-9.3-9.5-23.7-1.3-32.1 3.7-3.8 8.7-5.8 14.1-5.8 6.2 0 12.3 2.8 16.8 7.6 4.6 4.8 7 11 7.1 16.9l-13.5 20Z"/>
  <path fill="#311D00" d="m372.2 98.5-2.9 1.2c-.5-1-1.4-1.6-2.7-1.8-.4-.1-.8-.1-1.2-.2C259.5-91.4-66.4 13.4 12.1 263.5c5.5 17.6 12.3 32.9 18.8 45.3-.6 2.3-1.4 6.5-.1 12.1 2.1 8 3.9 12.9 10.4 27.1-2.6 9.6 6.4 23.7 28.2 19.5 25.9-4 39.5-13.4 42.6-15.8.9.6 1.8 1.3 2.6 1.9 46 35.9 121.2 38.7 148.9-3.7 11.1 2.3 24.9.4 24.9.4 14.4-.9 26-4.8 35-10.8-1.1-1.8-2.2-3.6-3.2-5.5-11.6 7.8-28.3 12-51.9 10.1l-1.5-.2c3.7-7.4 6.2-16 7-25.8-1.7-.3-3.5-.6-5.4-.9.2 6.6-.4 13.6-2.9 20.5-1.3 3.8-2.9 7.1-5.5 10.8 0 0-.3.4-.2.4-5.6 8.4-13.1 14.7-21.8 19.3-33.9 17.7-86.1 8.1-117.8-14.1-.8-.6-1.7-1.2-2.5-1.8-13.4-9.9-22.7-12.2-33.7-10.5-3.7.6-7.6 1.6-11.9 2.9-19 5.8-18.3-5.3-18.3-5.3-16-22.7-30.7-47-43.2-92.8-16.4-65.8-3.8-120.8 25.2-161.8.1-.1.2-.3.3-.4.2-.3.4-.5.6-.8C60.8 50 95.9 26 134.9 13.5c27.8-4.7 53.6-3.1 76.9 2.8.2 0 .3.1.5.1.3.1.5.2.8.2 23.1 6 43.6 16.3 60.9 28.8 21.1 15.2 37.5 33.7 48.3 52-.2.1-.4.3-.7.5-.4.3-.7.6-1 1-.1.2-.3.3-.4.5-.5.7-.7 1.5-.9 2.3-.3 1.7-.2 3.5.2 5.1.4 1.8 1 3.4 1.4 4.4.2.4.3.7.4.8 0 0 5.3 15.1 6.9 19.9 1.1-.2 2.1-.4 3.2-.6l-7.8-21.6c-3.1-7.3.4-10 .4-10-.9 2.7-.1 5.9.4 7.5 1 3.2 4.4 12.6 7.3 19.8.5 1.4 1 2.8 1.5 4.1.8-.2 1.7-.3 2.5-.5-2.4-7.3-5.7-15.8-6.8-18.6-.9-2.4-1.3-3.3-2.4-7.1-1.5-5.2.5-5.3 2.7-5.5 1.3-.1 5 0 6 0 2.3-1.2 7.1-3.6 10-5.1-34.8-58.7-104.4-98-195.8-84.7C221.5-7.9 303.3 12.8 352.5 83c2.6 4.4 4.8 6.8 8.8 14.6h-1.8c-2.7-3.9-5.5-5.1-8.9-5.2-.2 0-6.7 0-5.9 6.7.2 2.1 1.1 4.5 1.6 5.7h.1l4.9 10.3 1.3 2.7 4.7 9.5s3.5 7 3.7 10.7l12.7.3s.2-3.9-2.5-10.8c-2-5-7.8-23.2-9.8-26.8 0-.1-.1-.1-.1-.2.6 0 3.1 0 4.5.4 2.5 6.3 6.1 17.2 8.9 25.8 0 0 3.2.2 3.2.1 1.1.1 5.4.5 7 .8l-12.7-29.1ZM109.5 350.2c-.5.4-1.1.8-1.8 1.3-7.7 5.5-25.6 12.2-41.6 13.7-16.2 2.6-25.3-8.8-22.1-17.4l-.9-2.2c-.9-2.1-11.3-23.3-10.1-32.5 8.6 15.7 16.1 25.8 18.4 28.1.1.4.2.7.3 1.1-.2 2.3.3 9.1 13.6 6.6-4 7.8-19.1 3.5-16.2-6.8-2.2-2.7-7.5-11.4-7.5-11.4-.2.1.3 2.6.2 2.4 1.8 3.7 4.9 10.2 4.9 10.2-2.4 15.1 19.4 16.3 20.9 5.2h.1c1.1-.2 1.1 0 1.9-.4-.9 4.5-3.1 7-5.7 8.3-4.7 2.4-6 6.5 1.1 6 7.2-.5 20-2.5 35-9.9l3.2-1.7c-6.4-4-13.1-4.7-17.7-5-3.6-.3-9.3.7-13.5 1.6.3-.1.5-.2.8-.3 17.5-6 28.1-2.4 36.7 3.1Zm253.7-233.7c1.1 5-2.5 7.7-6.1 3.6-1.5-1.7-2.2-3.3-2.9-5.4l-.1-.3c-.6-2.6-.3-4.8-.3-4.8-1.1-1-1.9-1.9-2.4-2.7-.2-.2-.4-.4-.5-.6-.9-1.3-1.5-2.6-1.7-3.5-.1-.3-.1-.6-.2-.7v-.2c-.1-.9-.2-1.6-.2-2.3 0-1.3.3-2.1.6-2.6.1-.2.2-.3.3-.4 0 0 .1 0 .1-.1l.2-.2c.9-.6 2.1-.3 2.1-.3 3.2.4 6.8 5 6.8 11.4v.8c1.9 2 3.3 3.8 4.3 8.3Z"/>
  <path fill="#fff" d="M363.2 116.5c-1-4.5-2.4-6.3-4.3-8.2v-.8c0-6.5-3.6-11-6.8-11.4 0 0-1.2-.3-2.1.3-.1 0-.1.1-.2.2 0 0-.1 0-.1.1-.1.1-.2.2-.3.4-.3.5-.6 1.3-.6 2.6 0 .6.1 1.4.2 2.3v.2c0 .2.1.4.2.7.3.8.8 2.2 1.7 3.5.1.2.3.4.5.6.6.8 1.4 1.8 2.4 2.7 0 0-.3 2.2.3 4.8l.1.3c.6 2.1 1.3 3.7 2.9 5.4 3.6 4 7.3 1.3 6.1-3.7Zm-8.6-8.8c-1.9-1.2-4.7-5.2-4.2-8.5 4.3 0 5.5 6.3 4.2 8.5Zm4.4 11.7c-2.2-2.2-3.3-4.5-3.5-8 3.4.7 5.6 5 3.5 8Z"/>
</svg>
