<svg xmlns="http://www.w3.org/2000/svg" fill="none" viewBox="0 0 430 383">
  <path fill="#B1BABF" fill-rule="evenodd" d="M331.436 279.882a2271.52 2271.52 0 0 1-26.57 39.258c8.733 7.219 8.211 16.315 8.211 18.04-.168 9.672-5.317 16.89-10.033 21.111-5.866 4.999-13.882 7.423-22.341 7.485-.247 0-6.299-.186-8.379-.664-.893 1.31-2.618 2.903-5.423 4.044a11.734 11.734 0 0 1-1.292 2.61 12.086 12.086 0 0 1-10.042 5.397s-3.955-.115-6.689-1.999a12.055 12.055 0 0 1-5.433-10.06v-.107c.009-1.866.461-3.76 1.363-5.476-.407-.965-1.831-6.725-1.831-6.725l3.724-3.282c.301-.177 1.221-1.566 2.257-5.114 1.097-3.46 2.406-8.6 5.149-14.59 3.495-7.609 8.343-15.484 11.883-20.934-.346-1.743-2.177-2.548-3.495-2.866-1.478-.399-3.301-1.257-4.751-2.947-1.522-1.769-2.689-4.264-2.036-7.485.646-3.176 2.637-5.468 4.964-6.538v-.009c2.637-1.372 5.893-.717 5.893-.717 7.759.717 13.492 7.919 13.492 7.919 7.724-10.777 25.694-37.506 26.075-38.09-23.553 4.504-47.884 5.114-68.092 1.761-36.745-6.096-65.014-25.658-83.275-34.577-18.262-8.91-53.051-18.04-88.938-8.91-35.877 9.131-59.572 42.186-59.572 42.186 10.715-75.488 57.475-88.212 61.961-89.486 6.813-6.379 15.749-25.844-5.415-38.974-7.228-4.486-13.298-10.166-13.298-10.166 4.433.522 14.829-.849 20.598-3.132 6.927-2.734 13.298-3.645 13.298-3.645-5.468-5.212-13.82-7.822-13.82-7.822 8.343-.522 21.385-3.388 29.463-7.043 8.078-3.645 12.51-10.165 11.201-13.032-1.301-2.876-8.6-1.3-8.6-1.3 2.61-3.912 8.865-5.478 8.865-5.478-17.987-1.044-31.09 8.75-31.09 8.75 1.999-4.29 8.573-12.006 8.573-12.006-2.495.823-9.405 2.982-9.839 3.115 28.162-21.748 59.598-40.868 103.642-41.151 44.036-.292 86.938 19.447 115.525 28.596 28.605 9.149 43.78 13.767 74.666 9.202 14.785-2.195 27.73-8.255 37.214-13.936 0 0 6.636-16.872 7.141-41.097 0 0 7.953 14.262 7.989 36.47.079 76.214-36.851 131.876-48.654 152.138-11.281 19.933-26.11 43.804-44.239 71.276ZM412.65.002s1 18.323-2.46 35.099c-3.345 16.209-5.185 22.385-5.185 22.385-7.078 4.15-18.536 9.254-35.285 12.041-31.259 5.212-59.625-3.185-90.592-15.342-30.976-12.157-72.418-25.251-110.871-20.836-37.284 4.282-63.96 19.385-78.143 29.233-14.183 9.839-16.793 12.44-28.95 15.917 0 0 9.556 3.76 14.475 3.76 0 0-2.318 9.565-1.45 12.74 0 0 20.26-9.263 22.579-4.918 2.318 4.344-7.238 7.246-13.891 8.971-6.654 1.743-24.03 1.442-24.03 1.442s8.148 6.309 11.024 10.688c0 0-15.36 6.689-32.445 4.371 0 0-.566 6.326 13.475 16.687-2.99 1.071-6.777 2.805-9.122 5.309 0 0 14.714-3.035 23.96 7.264 2.433 3.052 3.23 5.786 2.955 9.237-.505 6.255-2.902 8.644-8.795 12.537-3.37 1.371-6.954 3.088-10.414 5.202-16.27 9.998-28.17 25.216-36.523 42.602-3.619 7.53-6.512 16.28-8.556 24.217-2.044 7.98-2.796 15.067-3.273 19.491C.655 262.514 0 276.432 0 276.432s7.3-10.228 10.723-15.13c3.407-4.884 24.995-32.029 56.44-39.894 10.06-2.557 20.076-3.628 29.649-3.628 23.013-.018 43.566 6.229 55.732 12.183 17.66 8.547 46.672 28.72 84.708 35.028 8.955 1.478 18.607 2.212 28.614 2.212 9.599 0 19.535-.699 29.463-2.052a1182.532 1182.532 0 0 1-16.103 23.437c-5.185-4.937-12.219-5.45-12.219-5.45-8.529-.805-12.802 4.389-12.802 4.389a14.073 14.073 0 0 0-3.522 7.149c-.602 2.645.115 5.725.611 7.29 1.627 5.167 6.042 7.521 7.759 8.273-12.467 16.607-16.085 35.728-16.085 35.736l-5.689 5.016 2.052 8.317c-3.167 10.202 1.805 17.855 8.255 21.023 6.548 3.22 12.661 1.353 12.661 1.353a17.246 17.246 0 0 0 9.706-7.06 16.2 16.2 0 0 0 .965-1.637 18.029 18.029 0 0 0 3.441-2.389c1.797.204 6.397.345 6.397.345 9.432-.08 18.651-2.752 25.685-8.724 5.539-4.954 11.635-13.404 11.847-24.95 0-2.168.399-10.91-6.821-18.528 45.558-66.888 75.135-109.95 94.016-153.764C455.508 48.841 412.835.417 412.65.002Z" clip-rule="evenodd"/>
  <path fill="#000" fill-rule="evenodd" d="M262.486 339.888c-.009.017-.018.044-.027.062-.009.008-.009.017-.009.026l.027-.053c0-.018.009-.027.009-.035Zm90.99-104.705c-20.049 9.344-66.313 24.836-112.384 16.236-16.032-2.99-37.134-7.998-65.04-24.915-18.306-11.086-38.072-21.686-84.15-21.482-38.17.185-62.687 17.483-70.49 23.915 20.712-67.579 81.938-57.696 81.938-57.696-11.174-5.362-24.587-3.309-24.587-3.309 19.181-30.18-11.724-44.31-11.724-44.31 2.602 0 14.334-3.388 20.324-5.476 5.998-2.08 17.005-3.522 17.005-3.522-3.84-3.53-15.705-6.379-15.705-6.379 11.21 0 21.359-5.433 28.419-12.785 2.46-2.557 9.193-15.36 1.557-20.323-7.025-4.566-20.96.504-20.969.513.018-.018 41.717-44.947 127.77-25.747 40.824 9.113 86.841 33.02 129.328 33.276 14.28.089 45.787-4.547 64.588-23.473-.991 35.957-7.688 86.319-65.88 175.477ZM299.31 314.3c-.053-.044-.133-.097-.177-.133-1.088-.991-2.494-2.185-4.052-3.486 2.539-3.619 31.631-46.875 40.16-60.288a160.81 160.81 0 0 0 8.75-3.407c-5.768 9.122-37.24 56.546-44.681 67.314Zm-1.522 37.868c-3.946 3.442-10.652 5.636-17.66 5.504-6.246-.124-10.635-1.133-14.607-3.292a.529.529 0 0 0-.035.133c-.31.265-.939 1.708-5.53 2.389-3.08.504-4.866-.115-5.053-.177 5.415 5.477 10.317 2.026 10.317 2.026.231.956.566 1.637.566 1.637s-1.627 2.39-6.583 1.566c-.601-.097-1.114-.266-1.619-.451.098.053.186.088.283.15 1.903 1.248 2.416 3.805 1.169 5.698a4.134 4.134 0 0 1-5.716 1.168 4.119 4.119 0 0 1-1.159-5.707 4.077 4.077 0 0 1 4.591-1.663c-3.716-1.788-4.671-5.521-4.671-5.521 4.751-4.212 4.601-11.839 9.449-22.438.221-.487.469-.982.708-1.478a.12.12 0 0 1-.018.053c-1.052 2.637-2.061 7.167-1.645 10.467.088.717.231 1.372.398 2.009v.009c.071.292 1.699 6.883 6.149 5.812l-.699 1.567c1.947 1.212 6.406 3.326 13.997 3.424 10.662.141 16.492-6.874 18.094-12.095 1.257-4.061-.69-8.574-4.707-12.529 1.177-1.362 1.893-3.264 1.106-5.883.363 1.212-1.911 3.371-4.309 3.158a3.334 3.334 0 0 1-.655-.115c-3.619-1.008-7.742-5.415-11.236-8.025-3.478-2.61-4.495-6.653-4.424-9.52.053-2.866-.92-6.264-3.654-8.839-2.734-2.574-5.184-2.822-5.964-3.026-.787-.211-1.008-.699-.929-1.221.16-.858 1.266-.699 1.266-.699 6.636 1.328 11.484 7.902 12.554 9.83.991 1.77 11.467 9.954 15.519 13.537 1.894 1.381 10.096 7.671 11.564 14.121 1.743 7.698-2.919 14.988-6.857 18.421Zm-11.82-17.501c1.3.646 3.167 1.912 4.043 3.743.23.487.336.956.336 1.478.134 2.141-2.371 5.273-4.592 6.096-1.61.663-3.742.991-5.804.982-.654 0-1.3-.027-1.929-.089.584-.982 1.292-2.176 2.08-3.459 1.769-2.893 3.964-6.264 5.866-8.751Zm-18.474-12.731c1.752-2.973 3.592-5.893 5.459-8.795l.265-.398c-.079.61-.292 3.928.823 7.219.646 1.575 1.672 3.168 3.291 4.654a102.642 102.642 0 0 0 3.672 3.248c-4.901 6.335-11.847 18.182-11.847 18.182-2.973.177-4.459-.806-6.139-4.389a8.789 8.789 0 0 1-.568-1.672v-.009c-.884-3.689-.079-8.441-.061-8.573.123-.248 3.424-6.618 5.105-9.467Zm48.972-66.013c4.07-.991 8.096-2.071 12.05-3.309.115-.036.231-.071.346-.115-4.044 6.131-35.878 51.679-38.072 54.634-.177-.141-5.645-4.822-5.839-4.99 8.113-11.272 31.055-45.521 31.515-46.22ZM416.34 19.998c-.505 24.225-7.141 41.097-7.141 41.097-9.484 5.68-22.429 11.741-37.214 13.936-30.886 4.565-46.061-.053-74.666-9.202-28.587-9.149-71.489-28.888-115.525-28.596-44.044.283-75.48 19.403-103.642 41.15.434-.132 7.344-2.29 9.839-3.114 0 0-6.574 7.716-8.574 12.007 0 0 13.104-9.795 31.091-8.75 0 0-6.255 1.566-8.865 5.476 0 0 7.299-1.575 8.6 1.3 1.309 2.867-3.123 9.388-11.201 13.033-8.078 3.655-21.12 6.521-29.463 7.043 0 0 8.352 2.61 13.82 7.822 0 0-6.37.911-13.298 3.645-5.77 2.283-16.165 3.654-20.598 3.132 0 0 6.07 5.68 13.298 10.166 21.164 13.13 12.228 32.595 5.415 38.974-4.486 1.275-51.246 13.998-61.96 89.486 0 0 23.694-33.055 59.571-42.186 35.887-9.13 70.676 0 88.938 8.91 18.261 8.919 46.53 28.481 83.275 34.577 20.208 3.353 44.539 2.743 68.092-1.761-.381.584-18.35 27.313-26.075 38.09 0 0-5.733-7.202-13.492-7.919 0 0-3.256-.655-5.893.717v.009c-2.327 1.07-4.318 3.362-4.964 6.538-.653 3.221.514 5.716 2.036 7.485 1.45 1.69 3.273 2.548 4.751 2.947 1.318.318 3.149 1.123 3.495 2.866-3.54 5.45-8.388 13.325-11.883 20.934-2.743 5.99-4.052 11.13-5.149 14.59-1.036 3.548-1.956 4.937-2.257 5.114l-3.724 3.282s1.424 5.76 1.831 6.725a11.926 11.926 0 0 0-1.363 5.476v.107c0 3.91 1.929 7.75 5.433 10.06 2.734 1.884 6.689 1.999 6.689 1.999 3.902 0 7.733-1.929 10.042-5.397.557-.841.983-1.725 1.292-2.61 2.805-1.141 4.53-2.734 5.424-4.044 2.079.478 8.131.664 8.378.664 8.459-.062 16.475-2.486 22.341-7.485 4.716-4.22 9.865-11.439 10.033-21.111 0-1.725.522-10.821-8.211-18.04a2271.52 2271.52 0 0 0 26.57-39.258c18.129-27.472 32.958-51.343 44.239-71.276 11.803-20.262 48.733-75.924 48.654-152.138-.036-22.208-7.989-36.47-7.989-36.47ZM262.459 339.95c-.009.008-.009.017-.009.026l.027-.053c0-.018.009-.027.009-.035-.009.017-.018.044-.027.062Z" clip-rule="evenodd"/>
  <path fill="#A71930" fill-rule="evenodd" d="M323.182 186.167c-20.598 14.572-52.848 19.023-52.848 19.023-.363 1.398-2.495 2.866-2.495 2.866s3.3 1.221 11.404 7.317c8.096 6.096 5.902 5.796 8.485 7.539 2.584 1.734 4.053 1.247 4.053 1.247.778 1.566.877 3.893.877 3.893 1.078 1.018 6.36 6.061 1.45 11.281-4.92 5.22-10.6.372-10.6.372-2.008.424-3.964-.239-3.964-.239s-10.511 6.618-20.95-.593c-8.495-5.857-7.982-12.803-7.485-15.2-2.868 1.645-5.947 2.928-9.105 3.919-8.521 2.672-19.395 3.778-30.198.186-7.096-2.389-12.971-6.53-17.607-11.122-4.645-4.601-8.078-9.679-10.316-14.253a44.557 44.557 0 0 1-.938-2.062c-.743 1.77-4.3 8.486-15.316 8.007-12.679-.548-17.076-12.165-17.076-12.165s-1.955-.655-3.3-2.195c0 0-7.45.443-8.228-6.688-.77-7.132 6.494-7.963 7.971-8.123 0 0 1.469-1.805 3.035-2.583 0 0 .885 1.283 3.99 1.451 3.106.168 1.177-.92 11.317-.894 10.139.018 13.501 1.044 13.501 1.044s-.814-2.459-.256-3.795c0 0-23.031-23.005-30.666-47.053-7.636-24.048-5.3-32.966 3.972-58.324 0 0 6.875 43.203 27.977 70.348 12.041 15.493 25.587 27.57 35.01 35.09.213 0 .434.009.646.009-2.008-2.238-3.539-4.866-4.3-7.874-1.884-7.432-4.972-14.342-6.388-19.846-1.416-5.512 1.734-16.527 1.734-16.527-4.229-6.778-2.167-17.935-2.167-17.935s2.291-1.088 4.034-3.202c1.734-2.124 1.133-8.388 2.548-17.608 1.416-9.219 7.415-18.757 20.704-24.18 13.218-5.398 33.073 1.68 33.25 1.743.177.053 20.288 6.379 27.578 18.66 7.326 12.342 6.353 23.579 1.92 31.781-4.432 8.21-8.697 12.838-8.582 15.58.106 2.734 1.283 4.982 1.283 4.982s-5.079 10.148-12.555 13.015c0 0-4.132 10.679-8.591 14.218-4.442 3.539-11.078 7.184-17.068 11.98-2.362 1.893-5.078 3.061-7.971 3.654.194.142.38.283.575.425 12.041-.319 30.055-1.779 48.91-6.848 33.205-8.937 64.748-39.249 64.748-39.249-7.892 25.818-11.414 34.347-32.002 48.928Zm31.586-102.988c-42.487-.256-88.504-24.163-129.328-33.276-86.053-19.2-127.752 25.73-127.77 25.747.01-.009 13.944-5.079 20.969-.513 7.636 4.963.903 17.766-1.557 20.323-7.06 7.352-17.209 12.785-28.419 12.785 0 0 11.865 2.849 15.705 6.379 0 0-11.007 1.442-17.005 3.522-5.99 2.088-17.722 5.476-20.324 5.476 0 0 30.906 14.13 11.724 44.31 0 0 13.413-2.053 24.588 3.309 0 0-61.227-9.883-81.94 57.696 7.804-6.432 32.321-23.73 70.49-23.915 46.08-.204 65.845 10.396 84.151 21.482 27.906 16.917 49.008 21.925 65.04 24.915 46.071 8.6 92.335-6.892 112.384-16.236 58.192-89.158 64.889-139.52 65.88-175.477-18.801 18.926-50.308 23.562-64.588 23.473Z" clip-rule="evenodd"/>
  <path fill="#fff" fill-rule="evenodd" d="M262.237 331.711a.12.12 0 0 1-.018.053c-1.053 2.637-2.061 7.166-1.646 10.468.088.716.231 1.372.399 2.008v.01c-2.487 11.422-7.3 11.608-8.574 11.44a2.27 2.27 0 0 1-.319-.063c4.75-4.211 4.6-11.838 9.449-22.438.222-.487.47-.982.709-1.478Zm10.98-18.97c-.074.611-.294 3.927.823 7.22-.009.008-6.142 8.026-11.591 20.023.087-.226.04-.116.008-.032a.11.11 0 0 0-.009.023c-.882-3.688-.078-8.441-.06-8.573.123-.248 3.423-6.618 5.105-9.469 1.752-2.972 3.592-5.892 5.46-8.794l.264-.398Zm55.644-60.239c-4.044 6.132-35.88 51.673-38.073 54.629-.178-.142-5.646-4.822-5.84-4.991 8.115-11.272 31.056-45.515 31.516-46.214 4.071-.991 8.097-2.07 12.052-3.309a4.98 4.98 0 0 0 .345-.115Zm-52.719-33.167s1.782 1.429 1.931 1.542c.678.513 2.13 1.857 2.799 2.514.551.544 1.103 1.088 1.648 1.639.4.406 2.059 1.97 2.62 2.389.426.316.858.596 1.305.815a6.2 6.2 0 0 0 1.284.468l-.041.031c-.923.691-2.008 1.145-3.175 1.145a5.37 5.37 0 0 1-1.224-.153 7.05 7.05 0 0 1-1.563-.587 9.674 9.674 0 0 1-1.469-.931c-.003-.005-.01-.019-.014-.023a5.04 5.04 0 0 0 .111-.782c.063-1.039-.152-2.232-.541-3.193-.648-1.701-3.606-4.82-3.671-4.874Zm-10.703-6.654c.147.083.287.156.439.242.72.405 1.443.806 2.158 1.217 1.508.87 2.996 1.772 4.46 2.713a71.743 71.743 0 0 1 3.092 2.085l.385.285c.987 1.098 1.993 2.509 2.459 3.82.549 1.51.588 2.906.391 3.929-3.207-3.086-9.951-8.043-11.849-9.026.185-2.266-.752-4.128-1.535-5.265Zm-53.861-26.441a78.51 78.51 0 0 1 3.002.446 40.146 40.146 0 0 0-1.594 2.355 80.66 80.66 0 0 1 3.295.672c.453-.829.925-1.642 1.411-2.434a73.61 73.61 0 0 1 2.756.648c-.415.82-.821 1.66-1.218 2.513a77.59 77.59 0 0 1 3.122.903c.329-.877.66-1.742.99-2.592.877.273 1.748.564 2.612.875-.25.877-.508 1.766-.774 2.664 1.032.367 2.042.753 3.035 1.152.196-.916.378-1.826.541-2.725.865.359 1.724.739 2.592 1.145a56.678 56.678 0 0 1-.339 2.766 84.32 84.32 0 0 1 3.03 1.428 42.2 42.2 0 0 0 .143-2.79c.883.458 1.769.943 2.666 1.454.041.935.044 1.87.005 2.801.541.296 1.071.593 1.593.893.006.146.008.292.011.439.019.822.008 1.649-.029 2.481l-.036.719c-.627-.318-1.26-.634-1.905-.947a26.185 26.185 0 0 1-1.07 4.259 71.539 71.539 0 0 0-2.905-1.594 33.522 33.522 0 0 0 1.027-4.051c-1.049-.476-2.12-.943-3.213-1.4a46.658 46.658 0 0 1-1.039 3.871 75.351 75.351 0 0 0-3.036-1.326 77.665 77.665 0 0 0 1.087-3.745 113.29 113.29 0 0 0-3.262-1.201 246.542 246.542 0 0 1-1.171 3.655 75.255 75.255 0 0 0-3.133-1.051c.416-1.223.84-2.431 1.268-3.621a115.512 115.512 0 0 0-3.327-1.002 75.751 75.751 0 0 0-1.389 3.635 74.647 74.647 0 0 0-3.219-.777 46.646 46.646 0 0 1 1.496-3.694 116.22 116.22 0 0 0-3.414-.811 33.234 33.234 0 0 0-1.61 3.824 71.034 71.034 0 0 0-3.281-.484 26.125 26.125 0 0 1 1.696-3.999 126.19 126.19 0 0 0-2.103-.383c.151-.227.304-.453.459-.677a36.4 36.4 0 0 1 1.493-2.013c.06-.076.119-.154.181-.228.6.071 1.208.151 1.822.238a33.095 33.095 0 0 1 1.734-2.291Zm133.395-33.481c-.165.386-6.725 15.453-34.01 27.29-1.213.526-2.45 1.05-3.748 1.561-5.546 2.087-17.225 6.034-32.671 8.823-6.244 1.127-12.561 1.896-18.881 2.426-.506.042-4.17.311-4.17.311a54.502 54.502 0 0 0-3.787-4.351c8.374-.37 16.972-1.201 25.411-2.717 34.819-6.258 56.202-20.819 66.455-28.916.937-.741 1.762-1.413 2.516-2.034 1.759-1.425 2.852-2.328 2.885-2.393Zm-180.362 29.459c.311-.002.93.011.883.016-1.622.09-4.19.685-5.825 1.667-.009.004-.018.012-.028.019-.935.545-1.933 1.46-2.442 2.422-.033.063-.219.413-.269.47-5.323 0-6.275-4.03-6.295-4.103.44.188.887.317 1.347.404l.366.059c.37.05.749.071 1.139.073 1.635.015 3.332-.294 5.1-.54 1.995-.279 4.009-.477 6.024-.487Zm1.127.014a72.735 72.735 0 0 1 5.382.299c2.207.198 4.776.491 6.965.837-1.314.437-3.125 1.297-4.346 3.226-.016.017-.034.035-.047.051-2.116-.366-10.484-.475-14.901.047.459-.933 1.331-2.024 2.678-2.899 1.162-.763 2.822-1.282 4.269-1.561Zm-14.949-94.64c1.905 8.017 7.565 37.862 37.194 69.959 5.862 6.35 12.273 12.239 18.78 17.62a55.013 55.013 0 0 0-5.67 1.222c-4.553-4.013-15.084-14.388-15.634-14.928l-.022-.022c-8.815-8.874-15.396-17.401-20.347-25.329-1.032-1.688-1.833-3.079-2.473-4.119l-.98-1.763c-13.667-25.031-10.848-42.64-10.848-42.64Zm59.405 54.356c1.385-1.16 4.505-.62 4.505-.62s1.4 1.472 1.73 2.572c.321 1.108-.011 7.144 2.374 11.297v-.098s.117-.439.623-1.193c.511-.754 1.503-1.823 2.097-1.401.595.421.515 1.608.501 2.879-.01 1.27-.439 2.629-.76 3.013 0 0 .495 1.014 1.84 1.655 0 0-.056-.484.042-1.174.212-1.218.825-2.224 1.217-3.331.119-.388.498-.787 1.062-.484.011 0 1.124.58 2.11 1.073.115.083.8.606.434 1.59-.017.036-.02.057-.031.084-.014.045-.035.083-.049.128-.37.928-.684 1.777-1.157 2.756 0 0-.242.905-.667.943 0 0 .829.544 1.202.701.571.242 1.281.548 1.632.635 0 0-.379-.586-.283-1.423.227-1.193.58-2.834.881-4.208.103-.323.394-.869 1.057-.66.747.308 1.507.6 2.268.878.639.268.633.899.608 1.111-.349 1.517-.74 3.335-1.155 4.787-.095.222-.227.532-.338.646 0 0 .684.481 1.144.602.456.119 1.324.295 1.324.295s-.167-.587.044-1.213c.004-.012.004-.023.004-.038.338-.969.679-1.943 1.023-2.921.083-.251.325-.804.463-1.163.074-.181.37-.738 1.047-.594.892.268 1.79.515 2.691.739.667.198.285 1.22.285 1.22s-.967 2.377-1.593 3.908c-.007-.003-.217.536-.563.819 0 0 .621.275 1.087.368.982.194 1.566.175 1.812.192 0 0-.302-.733.053-1.609.022-.036.031-.081.045-.121.3-.693.611-1.385.898-2.081.084-.196.158-.393.236-.593.101-.3.578-.792 1.363-.652.027.001.044-.002.068.001a58.15 58.15 0 0 0 1.881.32c.006.007 1.128.237.718 1.288a65.132 65.132 0 0 1-1.842 3.793c.7.055 1.407.095 2.114.114 0 0-.089-.063.201-.848.291-.785 1.141-2.458 1.226-2.707.085-.245.409-1.217.817-1.265.412-.044 2.013 1.239 1.596 3.714 4.402-1.88 7.763-6.882 8.688-7.563.809-.596 2.424-.919 2.83-.994.68.392 2.653 1.628 2.988 3.086 0 0-3.316 3.051-7.399 4.85-4.089 1.8-10.272 5.698-12.709 7.322-.923.614-2.177 1.144-3.763 1.436-.989-1.764-4.429-3.941-8.838-5.422-4.609-1.549-8.841-1.848-10.567-.889-1.258-1.289-2.026-2.576-2.42-3.711-.959-2.764-3.546-9.607-5.716-13.505-2.174-3.9-2.979-8.334-2.979-8.334Zm13.353-50.744c.088-4.592 4.946-23.49 30.135-19.2 4.645.965 8.37 2.089 9.343 2.398.098.036.186.062.284.098.477.15 1.132.362 1.92.654.23.089.468.177.716.275.328.124.673.256 1.035.407.478.194.982.407 1.513.637.522.239 1.071.486 1.638.76a47.091 47.091 0 0 1 3.857 2.089c.133.07.265.15.389.23.044.017.08.044.115.07 10.255 6.238 13.068 13.856 13.068 20.156 0 5.538-2.176 10.068-3.371 11.741-1.681 2.335-3.194 3.937-3.972 5.114-.929-1.664-1.646-3.433-1.92-5.203v.006l.001.021c.035.522.634 8.558 4.725 12.684l.211.207s-2.38 5.317-2.876 8.547c-.486 3.238.77 6.644.77 6.644s-.319.514-.779 1.221c-2.512 2.964-6.91 5.53-9.272 5.097-2.681-.496-9.14-2.69-12.882-1.92-3.071.637-4.92 2.371-5.937 4.123 0 0 .009-.009.017-.009-.274.327-.53.69-.707 1.115 0 0-.797 1.389-1.018 3.247-.548-.239-1.017-.425-1.017-.425.009.098.009.23-.018.372-.035.274-.159.716-.176.778a.657.657 0 0 1-.035.195c-.063.248-.134.496-.196.743a56.87 56.87 0 0 1-.752 2.522.171.171 0 0 0-.035.062c-.284.84-1.133.566-1.133.566-.009 0-.096-.035-.096-.035-.621-.31-1.302-.637-2.01-.974 0 0-.796-.415-.672-1.238-.009-.018 0-.036.009-.062.009-.036 0-.062.018-.089.026-.07.044-.159.07-.221.221-.796.69-2.504.752-2.902.08-.469.39-1.327.584-1.663-.133-.133-.469-.496-.761-.637-.247-.124-.513-.177-.876-.151-.132.115-.354.46-.362.646-.009.106-.292.991-.602 1.964-.318.982-.681 2.062-.841 2.548-.176.531-.557.646-.867.646-.192 0-.355-.044-.424-.067l-.036-.012c-.618-.248-1.46-.549-2.123-.797-.044-.008-.08-.035-.124-.044-.796-.301-.743-.982-.69-1.256.345-1.027.787-2.327 1.123-3.345.071-.239.16-.477.23-.725 0-.009.009-.018.018-.036.027-.106.328-.867.788-1.097-.301-.23-.903-.469-1.353-.628-.541-.177-1.505-.345-1.558-.354.159.345.195.947.115 1.248-.115.398-1.177 4.105-1.221 4.247-.053.141-.239.584-.531.69-.283.106-1.08-.151-1.08-.151-.053-.008-.088-.017-.132-.026-.673-.204-1.628-.354-2.264-.531 0 0-1.045-.301-.718-1.256 0 0 .681-2.495 1.018-3.681 0-.027.008-.071.017-.106a6.14 6.14 0 0 0 .23-1.336c.053-.752-.451-.929-.823-.929-.353 0-.743.637-.83 1.008-.099.399-.32 1.062-.32 1.062l-.026.062a2.42 2.42 0 0 0-.071.177 82.321 82.321 0 0 0-.973 2.725c-.308.816-1.156.753-1.331.73l-.032-.004c-.761-.16-1.495-.31-2.176-.434-.009 0-.098-.026-.098-.035 0 0-.849-.292-.566-1.133 0-.026 0-.053.018-.079a46.16 46.16 0 0 1 .911-2.46c.097-.23.451-1.071.655-1.398.212-.327.495-.504.495-.504.01-.195-.283-.558-.814-.744a4.358 4.358 0 0 0-.212-.053c.31-.769.699-1.831.885-2.725.584-2.167.513-5.22-2-8.095-2.522-2.876-9.007-5.017-11.431-6.238-2.433-1.221-4.619-7.087-4.327-11.139 0 0 3.053-1.965 4.61-4.84 1.575-2.867 2.867-8.538 2.867-8.538 5.883-.664 11.387-6.928 11.724-7.317-1.461 1.406-3.372 2.46-5.354 3.273.106-1.344-.115-3.61-.053-6.963Z" clip-rule="evenodd"/>
  <path fill="#B1BABF" fill-rule="evenodd" d="M263.74 296.956c.161-.859 1.267-.699 1.267-.699 6.636 1.327 11.485 7.901 12.555 9.83.991 1.77 11.467 9.954 15.519 13.538 1.895 1.38 10.096 7.671 11.564 14.121 1.744 7.698-2.919 14.988-6.857 18.422-3.946 3.442-10.653 5.635-17.661 5.504-6.246-.125-10.635-1.133-14.606-3.292a.457.457 0 0 0-.037.133c-.309.264-.938 1.707-5.529 2.389-3.08.504-4.867-.115-5.053-.177 5.415 5.477 10.316 2.026 10.316 2.026.232.956.566 1.637.566 1.637s-1.627 2.39-6.582 1.567c-.602-.098-1.115-.266-1.619-.451.097.053.185.088.283.15 1.903 1.247 2.415 3.804 1.168 5.697a4.132 4.132 0 0 1-5.715 1.169 4.119 4.119 0 0 1-1.16-5.707 4.076 4.076 0 0 1 4.592-1.663c-3.716-1.788-4.672-5.523-4.672-5.523s.115.035.319.063c1.274.168 6.087-.018 8.574-11.44.071.292 1.699 6.882 6.149 5.812l-.699 1.567c1.946 1.212 6.406 3.326 13.997 3.424 10.663.141 16.493-6.875 18.096-12.095 1.256-4.062-.69-8.575-4.708-12.53 1.177-1.362 1.894-3.264 1.106-5.884.363 1.213-1.911 3.372-4.31 3.159a3.468 3.468 0 0 1-.653-.115c-3.619-1.009-7.743-5.415-11.237-8.025-3.478-2.61-4.495-6.654-4.424-9.521.051-2.867-.921-6.265-3.655-8.839-2.734-2.575-5.184-2.823-5.964-3.026-.788-.213-1.009-.699-.93-1.221Zm22.225 37.711c1.301.645 3.168 1.911 4.043 3.742.231.487.338.956.338 1.477.133 2.142-2.372 5.274-4.593 6.098-1.611.663-3.744.991-5.805.981-.655 0-1.299-.026-1.928-.088.584-.983 1.292-2.176 2.078-3.459 1.77-2.894 3.966-6.265 5.867-8.751Zm-11.925-14.706c.646 1.575 1.672 3.167 3.291 4.654a103.56 103.56 0 0 0 3.673 3.248c-4.901 6.335-11.848 18.182-11.848 18.182-2.972.178-4.46-.805-6.14-4.389a8.74 8.74 0 0 1-.566-1.672c5.448-11.997 11.581-20.015 11.59-20.023Zm69.952-72.971c-5.769 9.122-37.242 56.54-44.685 67.308-.051-.044-.132-.097-.176-.133-1.089-.99-2.495-2.186-4.052-3.486 2.539-3.619 31.633-46.878 40.162-60.283a161.982 161.982 0 0 0 8.751-3.406Zm-78.845-44.878s.517-.383.826.007c.181.241.202.553-.14.868-.335.318-1.509 1.101-2.203 3.141-.696 2.052-.265 4.036.537 5.474.745 1.336 1.062 2.945.805 4.457a6.098 6.098 0 0 1-.481 1.568c-.569 1.216-1.015 2.486-1.53 3.726-.564 1.351-1.189 2.609-1.994 3.374-.894.849-2.336.587-3.22-.127-.036-.03-.081-.049-.115-.08.372 1.597 1.373 2.236 2.41 2.466-.486 3.186.645 5.505 4.481 7.387 3.925 1.923 10.734 1.916 15.818-2.937-.509-.572-1.119-.991-1.712-1.466a.083.083 0 0 0-.025-.019c.395-.114.905-.331 1.23-.735.181-.226.309-.598.402-1.025l.021.016a9.674 9.674 0 0 0 1.469.931 7.04 7.04 0 0 0 1.564.587c.388.094.822.153 1.223.153 1.167 0 2.252-.454 3.175-1.145.01-.008.023-.014.032-.022.009.004.087.566.092.69.039.726-.041 1.882-.723 3.009a2.315 2.315 0 0 1 2.517-.196 2.323 2.323 0 0 1 .937 3.154 2.326 2.326 0 0 1-3.156.938 2.307 2.307 0 0 1-.972-3.029c-.182.186-.355.377-.583.555-1.339 1.028-2.385 1.187-3.036 1.147-.463-.029-.731-.157-.731-.157s.027-.294-.104-.783c-.017-.066-.028-.124-.052-.199.16.015.455.019.823-.032 1.134-.161 2.986-.88 3.875-3.797 0 0-.218.283-.591.65-.816.805-2.496 2.01-4.808 1.838-1.11.951-7.978 6.41-16.208 3.498-8.986-3.183-9.055-8.73-8.831-10.543.147-1.183.78-3.132.811-3.227.731-2.272 4.438-10.476 4.457-11.746.021-1.271.701-5.909 3.71-8.369Zm1.827 15.834c1.898.983 8.642 5.94 11.849 9.026-.101.514-.242.96-.446 1.221-.318.399-.781.618-1.178.752-2.821-1.932-7.107-4.465-11.625-6.499.278-.698.6-1.565.981-2.638.241-.69.419-1.862.419-1.862Zm-82.946-43.323c.484-.127.669.492.669.492.912 3.777-1.342 7.886-2.089 8.913-.75 1.022-2.747 9.804-3.535 12.061 0 0-.93 2.315-1.3 3.062-.816 1.632-4.317 5.963-13.403 3.076-8.323-2.641-10.549-11.128-10.861-12.548-2.837-1.826-2.758-5.258-2.758-5.258-1.396 3.801.899 5.542 1.438 5.89-.062-.04-.539.458-.594.523-.009.01-.116.162-.124.16 0 0-.816-.154-1.566-1.214-.313-.442-.617-1.024-.84-1.843a5.515 5.515 0 0 1-.164-.856c-.003.032-.004.062-.009.093a2.355 2.355 0 0 1-2.679 1.974 2.36 2.36 0 0 1-1.976-2.682 2.354 2.354 0 0 1 4.638-.085c.071-2.315 1.76-3.672 1.76-3.672.02.073.972 4.103 6.295 4.103-.185.399-.306.772-.299 1.061.017.519.29.998.543 1.328h-.262c-.588.001-2.022.014-2.023.137 1.126 6.941 6.555 11.052 10.842 11.883 4.189.814 6.491-.349 8.021-3.172.97.442 2.161.52 3.424-.526-1.848.079-2.65-1.041-2.79-1.851-.367-2.126.958-5.347 1.473-7.792.522-2.446 2.38-3.944 3.888-4.605 1.514-.662 3.048-1.987 3.733-4.041.682-2.046.214-3.379.138-3.836-.08-.459.12-.694.41-.775Zm160.945-21.864c.004-.002-.162.482-.162.482-2.032 5.86-5.796 11.311-9.916 15.889-2.995 3.328-6.26 6.36-9.744 9.171-5.343 4.312-11.419 7.809-17.614 10.734-6.155 2.905-12.607 5.213-19.161 7.031-10.253 2.843-21.101 4.333-31.821 4.935a48.226 48.226 0 0 0-2.895-4.848c34.453-2.466 57.131-15.966 57.131-15.966l.172-.138c27.285-11.837 33.845-26.904 34.01-27.29Zm-186.182 33.933c4.417-.522 12.785-.413 14.901-.047a.555.555 0 0 1 .048-.05 7.574 7.574 0 0 0-.842 1.786 70.495 70.495 0 0 0-.814 2.693c-5.091-1.397-13.189-1.829-13.189-1.829-.232-.34-.47-.799-.484-1.308-.007-.332.15-.774.38-1.245Zm-8.002-99.1s-2.819 17.609 10.848 42.641l-.042-.076-.036-.065s9.74 24.092 35.285 46.688l.779.684a51.95 51.95 0 0 0-5.229 2.125c-.257.122-2.833-2.444-3.149-2.724a169.368 169.368 0 0 1-7.515-7.063c-5.664-5.665-10.888-11.784-15.467-18.36-3.719-5.338-7.058-10.959-9.758-16.881-2.639-5.786-4.791-11.781-6.137-18.004-1.267-5.857-1.829-11.88-1.512-17.868.187-3.54.618-7.22 1.763-10.591l.17-.505Zm61.496 43.424s2.402 1.166 3.15 1.603c0 0-.005.025-.012.078-.09.672-.724 5.464-.757 7.77-.003.354.003.649.033.861 0 0-3.119-.54-4.505.62 0 0 .805 4.434 2.979 8.334 2.17 3.898 4.757 10.741 5.717 13.505.393 1.135 1.161 2.422 2.419 3.711 1.727-.959 5.958-.66 10.567.889 4.409 1.481 7.849 3.658 8.838 5.422 1.586-.292 2.84-.822 3.763-1.436 2.437-1.624 8.621-5.522 12.709-7.322 4.083-1.799 7.399-4.85 7.399-4.85-.335-1.458-2.308-2.694-2.987-3.086l.094-.015c1.135-1.147 4.248-6.64 4.633-7.32l.04-.071c.863.105 3.474.62 3.474.62s-2.72 6.326-4.331 9.049c-1.606 2.713-2.913 3.636-4.479 4.742-1.564 1.103-8.468 5.665-10.296 6.953-1.821 1.289-6.67 5.638-10.904 6.39-2.099.371-3.921.416-5.649.223-1.728-.195-3.366-.628-5.094-1.206a.085.085 0 0 1-.031-.013c-.014-.003-.028-.005-.035-.008-3.457-1.163-6.26-2.572-9.163-5.699-2.559-2.757-3.829-7.998-4.561-10.691a23.632 23.632 0 0 0-.284-.985c-.677-2.127-3.429-9.93-4.013-11.753-.587-1.826-1.071-3.35-.712-6.486.335-2.945 1.798-9.006 1.981-9.752.01-.051.017-.077.017-.077Zm39.286 18.153s1.566-1.106 4.37-.972c0 0-.017.017-.017.026l.017-.009c-.079.212-.715 1.955-.885 3.486-.096.946-.556 3.336-.556 3.354-.823 2.867-3.583 4.449-3.832 4.291-.292-.186-.672-.885.566-4.849 0-.194.638-.424.78-.415.255-.045.512-.08.769-.124 0 0-.071-.151-.337-.531-.115-.187-.415-.302-.6-.408-.214-.115-1.292-.593-1.292-.602a9.562 9.562 0 0 1 1.001-3.218l.016-.029Zm-41.817-33.579c-.292 4.053 1.894 9.92 4.327 11.141 2.424 1.22 8.909 3.361 11.433 6.237 2.513 2.876 2.583 5.929 1.999 8.097-.186.893-.576 1.955-.884 2.725a3.514 3.514 0 0 0-.522-.089c-.514-.062-1.328-.115-1.497.522a.372.372 0 0 1-.017.045c.079.273.141.61.106.796a3.376 3.376 0 0 1-.15.479c-1.39 3.901-2.124 4.237-2.469 4.21-.292-.017-1.539-2.954-.469-5.734.008-.017.017-.034.017-.052.548-1.24 1.07-2.142 1.558-2.956.858-1.416 1.407-3.335 1.407-3.335l.017.036v-.028c.717.488 1.327 1.08 1.894 1.725.017.019.026.028.026.037.257.424.654.751.884 1.203a.909.909 0 0 1 .107.353c.194-.743.168-1.645-.116-2.37-.016-.027-.016-.054-.025-.08-1.052-2.876-3.778-4.566-6.31-6-1.689-.955-3.45-1.788-5.229-2.565-5.211-2.292-5.29-3.814-5.989-6.22a8.734 8.734 0 0 1-.204-1.045c-.097-.769-.124-1.69-.124-2.602 0-2.273.23-4.53.23-4.53Zm70.591 25.174a.538.538 0 0 1-.062.096c-1.044 1.859-2.45 3.85-4.168 5.142-2 1.504-2.981 2.663-8.528 1.353-2.177-.521-4.381-.99-6.601-1.265-2.841-.362-6.601-.46-8.672 1.928-.009.019-.018.019-.035.037-.018 0-.026.017-.035.026 1.026-1.761 2.875-3.504 5.954-4.141 3.744-.77 10.202 1.424 12.883 1.92 2.363.434 6.752-2.133 9.264-5.096Zm-34.257-14.309c2.001.801 3.112 2.81 2.51 4.611-.381 1.15-.292 2.07-.205 3.291l.011.036v.018c.043.982.264 1.504.502 2.176.241.629.533 1.629.161 2.654l-.469 1.398c-.628 1.886-2.894 2.815-5.052 2.098 0-.01 1.45-.38 1.92-1.77.008-.017.017-.036.017-.053.894-.133 1.673-.663 1.955-1.513l.496-1.459c.495-1.496-.611-2.169-.672-4.584-.089-1.248-.177-2.461.309-3.902.39-1.169-.263-2.464-1.483-3.001Zm-5.295 1.983c.612-1.787 2.708-2.734 4.815-2.141-1.302-.328-2.62.319-3.009 1.486-.487 1.451-1.31 2.354-2.124 3.292-1.513 1.893-2.805 1.761-3.3 3.257l-.495 1.459c-.284.841.016 1.726.637 2.372a.154.154 0 0 0-.019.062c-.468 1.398.469 2.565.469 2.565-2.149-.725-3.389-2.831-2.761-4.707l.47-1.398c.327-1.045 1.149-1.673 1.735-2.026.6-.39 1.088-.673 1.716-1.425l.026-.036c.824-.919 1.46-1.61 1.84-2.76Zm37.854-4.477.079.008s-1.106 7.469-2.929 10.397c-1.823 2.939-3.564 5.646-8.096 5.398 0 0 2.628-.761 1.788-2.823-.062-.15-.106-.3-.142-.459 1.212-.682 2.301-1.195 3.292-2.23 1.318-1.372 2.361-3.063 3.113-4.796.328-.771.604-1.558.825-2.363 0 0 .584-2.681 1.715-3.079.125-.017.239-.036.355-.053Zm-35.508-7.3c.964 2.097 8.564 4.645 10.644 3.574-.01.045-.203 2.779-.195 4.407.009 1.637.567 7.963 3.337 9.619.009 0-.683.822.202 3.397-.213-.07-3.681-1.353-4.928-4.159-1.291-2.885-.035-10.636-4.671-12.255-4.674-1.512-8.344 5.433-11.124 6.955-2.768 1.521-6.45.344-6.45.344 2.136-1.422 2.22-2.451 2.221-2.578v-.013c3.202.354 7.452-4.354 8.451-5.663.992-1.3 2.513-3.628 2.513-3.628Zm-22.148-12.069.054.035.018.009c.078.08.168.168.247.257.664.999-.486 3.486-.486 3.486a18.127 18.127 0 0 0-.718 2.221c-.663 2.575-.911 5.769.15 8.335.045.088.718 1.256.683 1.292a1.612 1.612 0 0 1-.196.15 3.121 3.121 0 0 1-.211.142c-1.842 1.079-.398 3.149-.283 3.309-3.753-2.522-3.523-5.734-3.195-9.175.318-3.434 3.937-10.061 3.937-10.061Zm49.14-27.358 1.026.433c26.375 12.688 20.562 32.728 19.049 36.559-1.372 3.442-4.097 6.839-5.29 8.777-1.399-1.531-3.283-3.813-4.699-6.37.778-1.177 2.291-2.779 3.972-5.114 1.195-1.673 3.371-6.203 3.371-11.741 0-6.3-2.813-13.918-13.068-20.155a.497.497 0 0 0-.115-.071 5.563 5.563 0 0 0-.389-.23 46.93 46.93 0 0 0-3.857-2.088ZM229.22 99.947c4.407-1.097 11.565 5.574 15.776 9.087 3.584 3.168 5.151 3.469 5.469 3.557.327.124 1.751.831 6.503.459 5.487-.255 15.219-1.264 18.077 2.275 0 .097-6.919-.681-11.583.071-4.636.982-11.218 1.611-14.139.593-2.937-.948-7.812-5.424-10.909-8.999-3.247-3.389-9.194-6.928-9.194-7.043Zm14.978-28.951c2.114 0 4.379.15 6.812.496.876.15 1.726.318 2.548.486l.124.027c-25.189-4.291-30.047 14.607-30.135 19.2-.062 3.353.159 5.618.053 6.962-3.663 1.531-7.582 2.088-7.582 2.088.212-2.123.203-6.812 1.114-10.51.859-3.478 6.663-18.66 27.066-18.749Z" clip-rule="evenodd"/>
  <path fill="#0A0B09" fill-rule="evenodd" d="M231.687 67.298c13.218-5.397 33.073 1.68 33.25 1.743.177.053 20.287 6.379 27.578 18.66 7.326 12.342 6.353 23.579 1.92 31.781-4.432 8.21-8.697 12.838-8.582 15.58.106 2.734 1.283 4.982 1.283 4.982s-5.079 10.148-12.555 13.015c0 0-4.132 10.679-8.592 14.218-4.441 3.539-11.077 7.184-17.067 11.98-2.362 1.893-5.078 3.061-7.972 3.654.195.142.381.283.575.425 12.042-.319 30.056-1.779 48.911-6.848 33.205-8.937 64.748-39.249 64.748-39.249-7.892 25.818-11.414 34.347-32.002 48.928-20.598 14.572-52.848 19.023-52.848 19.023-.363 1.398-2.495 2.866-2.495 2.866s3.3 1.221 11.404 7.317c8.096 6.096 5.902 5.796 8.485 7.539 2.427 1.629 3.871 1.298 4.037 1.252l.016-.005c.778 1.566.876 3.893.876 3.893 1.079 1.018 6.361 6.061 1.451 11.281-4.92 5.22-10.6.372-10.6.372-2.008.424-3.964-.239-3.964-.239s-10.511 6.618-20.95-.593c-8.495-5.857-7.982-12.803-7.486-15.2-2.867 1.645-5.946 2.928-9.104 3.919-8.521 2.672-19.395 3.778-30.198.186-7.096-2.389-12.971-6.53-17.607-11.122-4.645-4.6-8.078-9.679-10.317-14.253a45.6 45.6 0 0 1-.937-2.062c-.744 1.77-4.3 8.486-15.316 8.007-12.679-.548-17.076-12.165-17.076-12.165s-1.955-.655-3.3-2.195c0 0-7.45.443-8.229-6.688-.769-7.132 6.495-7.963 7.972-8.123 0 0 1.469-1.805 3.035-2.583 0 0 .885 1.283 3.99 1.451 3.106.168 1.177-.92 11.317-.894 10.139.018 13.501 1.044 13.501 1.044s-.814-2.459-.256-3.795c0 0-23.031-23.005-30.667-47.053-7.635-24.048-5.299-32.966 3.973-58.324 0 0 6.875 43.203 27.977 70.348 12.041 15.493 25.587 27.57 35.01 35.09.212 0 .434.009.646.009-2.008-2.238-3.539-4.866-4.3-7.874-1.885-7.432-4.972-14.342-6.388-19.846-1.416-5.512 1.734-16.527 1.734-16.527-4.229-6.778-2.168-17.935-2.168-17.935s2.292-1.088 4.035-3.202c1.734-2.124 1.132-8.388 2.548-17.608 1.416-9.219 7.415-18.757 20.704-24.18Zm34.285 134.821c-.31-.389-.823-.008-.823-.008-3.008 2.459-3.69 7.096-3.716 8.37-.018 1.274-3.724 9.476-4.451 11.749-.035.09-.663 2.044-.814 3.221-.221 1.814-.15 7.361 8.831 10.546 8.229 2.912 15.103-2.548 16.209-3.494 2.309.168 3.99-1.036 4.804-1.841.336-.327.54-.584.584-.646-.876 2.911-2.734 3.628-3.867 3.787a3.578 3.578 0 0 1-.822.036c.026.079.035.132.053.204.132.486.106.778.106.778s.265.132.725.159c.655.035 1.699-.124 3.045-1.15.221-.177.397-.363.574-.549a2.31 2.31 0 0 0 .974 3.026 2.328 2.328 0 0 0 3.158-.937 2.325 2.325 0 0 0-.938-3.159 2.324 2.324 0 0 0-2.513.194c.682-1.123.761-2.282.717-3.007 0-.125-.08-.682-.088-.682l.008-.009a6.91 6.91 0 0 1-1.283-.469 8.176 8.176 0 0 1-1.3-.823c-.566-.416-2.22-1.982-2.627-2.389-.541-.548-1.098-1.088-1.647-1.637-.663-.654-2.123-1.999-2.796-2.512l-1.884-1.496c.38.39 3.017 3.23 3.619 4.831.389.956.61 2.15.548 3.185a4.997 4.997 0 0 1-.115.788s.009.018.018.018c-.009 0-.018-.009-.027-.009-.088.424-.221.796-.398 1.026-.327.399-.84.62-1.23.734.009 0 .018.009.027.018.593.469 1.203.894 1.708 1.469-5.088 4.848-11.892 4.857-15.82 2.928-3.831-1.874-4.964-4.193-4.477-7.387-1.035-.222-2.035-.867-2.416-2.46.036.027.081.044.116.08.885.716 2.326.973 3.22.123.805-.76 1.433-2.017 2-3.371.513-1.238.955-2.512 1.53-3.724.23-.496.39-1.036.478-1.566.257-1.513-.062-3.124-.805-4.46-.805-1.442-1.23-3.424-.54-5.476.699-2.044 1.867-2.823 2.203-3.141.345-.31.328-.629.142-.868Zm-.531 10.565c.779 1.132 1.716 3 1.531 5.264 0 0-.177 1.168-.415 1.858a90.893 90.893 0 0 1-.983 2.637c4.522 2.035 8.803 4.574 11.626 6.503.398-.133.859-.354 1.176-.752.204-.266.346-.708.443-1.221.203-1.027.16-2.424-.39-3.929-.46-1.309-1.468-2.725-2.459-3.821-.123-.098-.257-.187-.381-.284a67.829 67.829 0 0 0-3.096-2.088c-1.46-.938-2.947-1.84-4.46-2.707-.716-.416-1.433-.814-2.159-1.221-.15-.089-.292-.16-.433-.239Zm-38.09-31.374c-17.536-5.884-36.558 2.813-40.735 8.095a4.335 4.335 0 0 0-.468.673c-.018.026-.027.079-.054.097 0 0-.106.159-.221.487-1.663 4.972 8.414 26.1 27.437 32.489 19.04 6.388 39.62-3.823 41.478-9.361.133-.398.16-.726.16-.726.185-1.309-.107-3.176-.832-5.362-2.831-8.405-12.245-21.517-26.765-26.392Zm11.106 17.543c6.682 3.917 11.654 8.134 14.189 11.153-3.715-2.74-8.545-5.783-14.218-8.672.037-.832.048-1.659.029-2.481Zm-54.326-24.248-.107.016c-.283.079-.487.318-.407.778.08.452.549 1.788-.142 3.831-.681 2.062-2.211 3.38-3.724 4.044-1.513.663-3.371 2.159-3.893 4.609-.514 2.442-1.841 5.663-1.469 7.786.133.814.938 1.929 2.787 1.859-1.265 1.044-2.451.964-3.424.522-1.531 2.822-3.831 3.981-8.025 3.167-4.282-.823-9.715-4.937-10.839-11.882 0-.118 1.438-.132 2.025-.133h.258c-.248-.328-.522-.814-.54-1.327-.008-.292.115-.664.301-1.062.045-.062.23-.407.266-.469.513-.964 1.504-1.876 2.442-2.424.009-.009.017-.018.026-.018 1.637-.982 4.203-1.575 5.831-1.663.044-.009-.575-.027-.885-.018-2.017.009-4.026.203-6.025.487-1.77.247-3.469.548-5.096.539a9.4 9.4 0 0 1-1.513-.132 6.962 6.962 0 0 1-1.345-.407s-1.69 1.353-1.761 3.671a2.342 2.342 0 0 0-1.955-1.884 2.35 2.35 0 0 0-2.681 1.973 2.363 2.363 0 0 0 1.982 2.681 2.353 2.353 0 0 0 2.672-1.973c.009-.036.009-.062.009-.098.035.275.088.567.168.859.221.822.522 1.398.84 1.84.743 1.062 1.566 1.221 1.566 1.221.009 0 .115-.151.124-.168.053-.062.496-.522.584-.522-.549-.363-2.814-2.106-1.433-5.884 0 0-.08 3.433 2.76 5.256.31 1.415 2.54 9.909 10.865 12.546 9.087 2.893 12.582-1.443 13.405-3.079.362-.744 1.291-3.062 1.291-3.062.788-2.256 2.787-11.033 3.539-12.059.744-1.026 3-5.132 2.088-8.91 0 0-.185-.619-.672-.495l.107-.016Zm160.842-21.847c-.035.071-1.123.973-2.884 2.398a178.85 178.85 0 0 1-2.522 2.035c-10.245 8.095-31.63 22.65-66.446 28.914-8.441 1.513-17.041 2.345-25.42 2.716a53.415 53.415 0 0 1 3.796 4.353s3.663-.273 4.167-.318c6.317-.531 12.635-1.292 18.881-2.424 15.448-2.787 27.127-6.733 32.666-8.822a109.083 109.083 0 0 0 3.752-1.566l-.168.142s-22.686 13.502-57.13 15.97a49.962 49.962 0 0 1 2.893 4.849c10.714-.602 21.562-2.097 31.816-4.937 6.556-1.823 13.006-4.123 19.164-7.034 6.194-2.92 12.272-6.424 17.616-10.733 3.477-2.813 6.742-5.839 9.742-9.175 4.123-4.574 7.883-10.024 9.918-15.881l.15-.46.009-.027ZM165.736 182.23c-1.442.283-3.106.796-4.265 1.566-1.354.876-2.221 1.964-2.681 2.893-.23.478-.389.92-.38 1.248.018.513.256.964.486 1.309 0 0 8.096.434 13.192 1.832.195-.726.461-1.62.806-2.699.221-.69.522-1.265.849-1.787 1.221-1.929 3.026-2.787 4.344-3.221-2.194-.354-4.76-.646-6.963-.84a75.408 75.408 0 0 0-5.388-.301Zm23.542 6.632c3.929-.872 10.648-1.283 18.563-.341a36.4 36.4 0 0 0-1.493 2.013c-6.461-1.153-12.328-1.63-17.07-1.672ZM150.792 87.594l-.177.505c-1.141 3.37-1.575 7.051-1.761 10.59-.318 5.99.248 12.016 1.513 17.864 1.345 6.229 3.495 12.219 6.141 18.005 2.698 5.928 6.034 11.546 9.759 16.882 4.574 6.574 9.803 12.696 15.465 18.359a167.852 167.852 0 0 0 7.512 7.069c.319.274 2.893 2.84 3.15 2.725a52.23 52.23 0 0 1 5.229-2.132c-25.72-22.429-35.745-46.601-36.055-47.353l.071.124c.319.584.637 1.168.982 1.76.637 1.044 1.434 2.433 2.469 4.123 4.955 7.928 11.528 16.457 20.35 25.331.026.027 10.98 10.83 15.651 14.944a55.132 55.132 0 0 1 5.672-1.221c-6.503-5.379-12.918-11.272-18.784-17.616-29.622-32.099-35.285-61.943-37.187-69.959Zm61.492 43.425s-.009.027-.018.071c-.186.752-1.646 6.813-1.982 9.759-.044.389-.071.752-.088 1.097-.142 2.415.283 3.787.805 5.388.584 1.823 3.335 9.627 4.008 11.75.088.266.186.602.292.982.725 2.699 1.999 7.937 4.556 10.697 2.903 3.123 5.707 4.53 9.167 5.698 0 0 .017 0 .026.009.018 0 .027.009.036.009 1.725.584 3.362 1.008 5.096 1.203 1.725.195 3.548.15 5.646-.221 4.237-.752 9.085-5.096 10.908-6.388 1.823-1.292 8.733-5.849 10.291-6.955 1.565-1.105 2.875-2.026 4.485-4.742 1.61-2.725 4.326-9.051 4.326-9.051s-2.61-.513-3.477-.619c0 0-.009.026-.035.07-.39.682-3.504 6.176-4.636 7.326 0 0-.036 0-.089.018-.407.071-2.026.389-2.831.991-.929.681-4.291 5.68-8.689 7.565.416-2.478-1.184-3.761-1.601-3.716-.407.044-.725 1.017-.814 1.265-.089.248-.938 1.92-1.221 2.707-.292.788-.203.85-.203.85a56.544 56.544 0 0 1-2.115-.115 67.773 67.773 0 0 0 1.84-3.796c.368-.953-.509-1.232-.68-1.276l-.028-.007-.009-.009a45.665 45.665 0 0 1-1.883-.318h-.063c-.788-.142-1.264.354-1.363.654-.079.195-.158.399-.239.593-.292.69-.601 1.389-.902 2.079a.301.301 0 0 1-.044.124c-.354.876-.053 1.611-.053 1.611-.239-.018-.823 0-1.814-.195-.46-.097-1.08-.372-1.08-.372.346-.283.558-.823.558-.823.628-1.53 1.592-3.901 1.592-3.901s.381-1.027-.283-1.221a57.807 57.807 0 0 1-2.689-.735c-.682-.15-.974.407-1.044.593-.142.354-.381.911-.469 1.159-.345.982-.682 1.955-1.018 2.92 0 .018 0 .026-.009.044-.212.619-.044 1.212-.044 1.212s-.867-.177-1.318-.301c-.46-.115-1.15-.601-1.15-.601.115-.106.247-.425.345-.646.407-1.451.805-3.265 1.15-4.787.026-.212.035-.84-.611-1.106a64.823 64.823 0 0 1-2.265-.884c-.663-.204-.955.345-1.061.663a183.015 183.015 0 0 0-.876 4.212c-.098.831.283 1.415.283 1.415-.353-.079-1.062-.389-1.628-.628-.381-.159-1.204-.708-1.204-.708.425-.035.664-.938.664-.938.469-.982.788-1.831 1.159-2.76.009-.044.036-.08.044-.124.009-.027.018-.044.036-.088.363-.983-.319-1.505-.434-1.584-.991-.496-2.106-1.08-2.114-1.08-.567-.3-.938.098-1.062.487-.389 1.106-1 2.115-1.212 3.336-.098.69-.045 1.168-.045 1.168-1.344-.638-1.84-1.655-1.84-1.655.319-.38.752-1.743.761-3.008.009-1.274.089-2.46-.504-2.885-.593-.415-1.584.646-2.097 1.407-.504.752-.62 1.195-.62 1.195v.097c-2.388-4.158-2.052-10.193-2.38-11.299-.327-1.106-1.725-2.574-1.725-2.574a7.658 7.658 0 0 1-.035-.859c.035-2.309.672-7.095.761-7.768.009-.053.009-.079.009-.079-.744-.443-3.15-1.602-3.15-1.602Zm31.914-60.023c-20.403.089-26.207 15.271-27.066 18.748-.911 3.699-.902 8.388-1.115 10.511 0 0 3.92-.557 7.583-2.088 1.982-.814 3.893-1.866 5.354-3.273-.337.39-5.841 6.653-11.724 7.317 0 0-1.292 5.671-2.867 8.538-1.557 2.875-4.61 4.84-4.61 4.84s-.23 2.256-.23 4.53c0 .911.027 1.831.124 2.601.053.389.124.743.204 1.044.699 2.407.778 3.928 5.99 6.22 1.778.779 3.539 1.61 5.229 2.566 2.53 1.433 5.255 3.123 6.308 5.999.009.026.009.053.027.079.283.726.309 1.628.115 2.371 0-.097-.045-.221-.107-.354-.229-.451-.628-.778-.884-1.203 0-.009-.008-.018-.027-.035-.566-.646-1.177-1.239-1.893-1.726v.027l-.018-.035s-.549 1.92-1.407 3.335c-.486.814-1.009 1.717-1.557 2.955a.12.12 0 0 1-.018.053c-1.07 2.779.177 5.716.469 5.734.345.026 1.08-.31 2.469-4.212.035-.088.106-.274.15-.478.035-.185-.026-.522-.106-.796 0 0 .009-.018.018-.044.168-.637.982-.584 1.495-.522.177.018.354.044.522.088.08.018.151.036.212.053.531.186.824.549.814.744 0 0-.283.177-.495.504-.204.327-.558 1.168-.655 1.398a46.16 46.16 0 0 0-.911 2.46c-.018.026-.018.053-.018.079-.25.742.382 1.056.534 1.12l.032.013c0 .009.089.035.098.035.681.124 1.415.274 2.176.434 0 0 1.019.185 1.363-.726.327-.964.61-1.761.973-2.725.018-.053.044-.115.071-.168v-.009l.026-.062s.221-.663.32-1.062c.087-.371.477-1.008.83-1.008.372 0 .876.177.823.929a6.14 6.14 0 0 1-.23 1.336.503.503 0 0 0-.017.106 527.33 527.33 0 0 0-1.018 3.681c-.327.955.718 1.256.718 1.256.636.177 1.591.327 2.264.531.044.009.079.018.132.026 0 0 .797.257 1.08.151.292-.106.478-.549.531-.69.044-.142 1.106-3.849 1.221-4.247.08-.301.044-.903-.115-1.248.053.009 1.017.177 1.558.354.45.159 1.052.398 1.353.628-.46.23-.761.991-.788 1.097-.009.018-.017.027-.017.036-.071.248-.16.487-.231.725-.336 1.018-.778 2.318-1.123 3.345-.053.274-.106.955.69 1.256l.124.044c.663.248 1.505.549 2.123.797 0 0 .204.079.46.079.31 0 .691-.115.867-.645.16-.487.523-1.567.841-2.549.311-.973.593-1.858.602-1.964.008-.186.23-.531.362-.646.363-.026.629.027.876.151.292.141.628.504.761.637-.194.336-.504 1.194-.584 1.663-.062.398-.531 2.106-.752 2.902-.026.062-.044.151-.07.221-.018.027-.009.053-.018.089-.009.026-.018.044-.009.062-.124.823.672 1.238.672 1.238.708.337 1.389.664 2.01.974 0 0 .087.035.096.035 0 0 .849.274 1.133-.566a.171.171 0 0 1 .035-.062 56.87 56.87 0 0 0 .752-2.522c.062-.247.133-.495.196-.743a.657.657 0 0 0 .035-.195c.017-.062.141-.504.176-.778.027-.142.027-.274.018-.372 0 0 .47.186 1.017.425 0 .009 1.08.487 1.292.602.186.106.487.221.602.415.265.372.336.522.336.522l-.77.124c-.141-.009-.779.221-.779.416-1.238 3.964-.858 4.663-.565 4.849.247.159 3.007-1.416 3.83-4.283 0-.026.46-2.415.559-3.362.167-1.53.804-3.273.884-3.486l-.018.009c0-.009.018-.026.018-.026-2.805-.133-4.371.973-4.371.973.177-.425.433-.788.707-1.115.018-.018.027-.018.036-.035 2.07-2.389 5.831-2.292 8.671-1.929 2.22.274 4.424.743 6.6 1.265 5.556 1.309 6.531.15 8.529-1.354 1.726-1.291 3.132-3.282 4.176-5.14.019-.036.045-.062.062-.098.46-.707.779-1.221.779-1.221s-1.256-3.406-.77-6.644c.496-3.23 2.876-8.547 2.876-8.547-4.424-4.194-4.937-12.918-4.937-12.918.274 1.77.991 3.539 1.92 5.203 1.416 2.557 3.3 4.839 4.699 6.37 1.193-1.938 3.918-5.335 5.29-8.777 1.513-3.831 7.326-23.871-19.049-36.559l-1.026-.433c-.567-.275-1.116-.522-1.638-.761a31.208 31.208 0 0 0-1.513-.637c-.362-.15-.707-.283-1.035-.407-.256-.098-.494-.186-.716-.275a40.146 40.146 0 0 0-1.92-.654c-.098-.036-.186-.062-.284-.098-.973-.31-4.698-1.433-9.343-2.397l-.124-.027a81.508 81.508 0 0 0-2.548-.486 48.426 48.426 0 0 0-6.812-.496Zm-1.599 56.787c.389-1.167 1.707-1.814 3.009-1.486.079.018.158.035.23.062.086.028.167.063.25.096 1.22.537 1.873 1.832 1.483 3.001-.486 1.441-.398 2.654-.31 3.902.062 2.415 1.168 3.088.673 4.584l-.496 1.459c-.282.85-1.061 1.38-1.955 1.513-.417.053-.859.053-1.301-.088-1.37-.46-2.141-1.859-1.716-3.106.071-.212-.054-.442-.275-.523a.415.415 0 0 0-.521.249c-.415 1.256-1.876 1.902-3.256 1.442-.443-.15-.797-.416-1.097-.725-.621-.646-.921-1.531-.637-2.372l.495-1.459c.495-1.496 1.787-1.364 3.3-3.257.814-.938 1.637-1.841 2.124-3.292Zm11.184-7.548s.035.045.053.071c.133.195.751 1.054 1.699 1.964.168.169.344.328.531.488.009.008.026.017.034.034.691.576 1.505 1.106 2.444 1.417 2.856.964 7.024.282 11.492-.532.391-.061.77-.114 1.152-.159 4.008-.459 7.53.426 7.53.426l.008.025-.079-.008c-.116.017-.23.036-.355.053-1.131.398-1.715 3.079-1.715 3.079a18.785 18.785 0 0 1-.825 2.363c-.752 1.733-1.795 3.424-3.113 4.796-.991 1.035-2.08 1.548-3.292 2.23l-.01-.009c-.016 0-.699.212-1.06.256-2.745.337-8.513-.548-11.281-2.442-.028-.009-.045-.018-.062-.026-2.779-1.656-3.338-7.982-3.346-9.619-.008-1.628.185-4.362.195-4.407Zm-32.765-15.643c.203.079 3.415 1.486 6.246 4.185.284.266.558.54.824.823 3.078 3.345 5.99 6.406 8.848 7.362.929.309 1.91.38 2.805.337.009 0 .026 0 .045-.01.247-.009.486-.026.715-.053a15.429 15.429 0 0 0 2.637-.575s-1.52 2.328-2.512 3.628c-.999 1.309-5.249 6.017-8.451 5.663-.025 0-.053-.018-.079-.018-3.355-.168-8.494-2.938-10.477-4.858-.265-.265-.672-.841-.68-.841a1.462 1.462 0 0 1-.196.142c.071-.044.134-.097.196-.15.035-.036-.638-1.204-.683-1.292-1.061-2.566-.814-5.76-.15-8.335.195-.752.426-1.495.718-2.221 0 0 1.15-2.487.486-3.486-.079-.089-.169-.177-.248-.257l-.017-.009c0-.008-.01-.017-.027-.035Z" clip-rule="evenodd"/>
  <path fill="#C2242B" fill-rule="evenodd" d="M252.84 214.911c-7.048 4.442-22.779 8.552-37.928 3.471-14.868-4.993-24.748-17.703-27.912-25.441-.37-.804-.467-2.972 1.705-3.977 0 0-1.372.195-2.608 1.209 0 0-.109.16-.22.492-1.665 4.965 8.411 26.097 27.436 32.484 19.035 6.389 39.622-3.822 41.48-9.356.127-.402.153-.726.153-.726-.432-1.355-1.258-2.199-1.258-2.199 1.058 1.997-.028 3.461-.848 4.043Z" clip-rule="evenodd"/>
  <path fill="#DC4405" fill-rule="evenodd" d="m238.428 201.334-.036.719c-.627-.318-1.26-.634-1.905-.947a26.083 26.083 0 0 1-1.07 4.259 71.539 71.539 0 0 0-2.905-1.594 33.522 33.522 0 0 0 1.027-4.051c-1.049-.476-2.12-.943-3.213-1.4a46.658 46.658 0 0 1-1.039 3.871 75.351 75.351 0 0 0-3.036-1.326 77.665 77.665 0 0 0 1.087-3.745 112.2 112.2 0 0 0-3.262-1.201 246.542 246.542 0 0 1-1.171 3.655 74.763 74.763 0 0 0-3.133-1.051c.416-1.223.84-2.431 1.268-3.621a114.564 114.564 0 0 0-3.327-1.002 75.751 75.751 0 0 0-1.389 3.635 74.291 74.291 0 0 0-3.219-.777 46.646 46.646 0 0 1 1.496-3.694 116.22 116.22 0 0 0-3.414-.811 33.412 33.412 0 0 0-1.61 3.824 71.034 71.034 0 0 0-3.281-.484 26.125 26.125 0 0 1 1.696-3.999 127.99 127.99 0 0 0-2.102-.383c.15-.227.303-.453.458-.677-6.461-1.153-12.328-1.63-17.07-1.672 3.929-.872 10.648-1.283 18.563-.341.061-.076.119-.154.181-.228a79.36 79.36 0 0 1 1.822.238 33.095 33.095 0 0 1 1.734-2.291 78.51 78.51 0 0 1 3.002.446 40.647 40.647 0 0 0-1.594 2.355 80.66 80.66 0 0 1 3.295.672c.453-.829.925-1.642 1.411-2.434.934.201 1.853.417 2.757.648-.415.82-.822 1.66-1.219 2.513a77.59 77.59 0 0 1 3.122.903c.329-.877.66-1.742.99-2.592.877.273 1.748.564 2.612.875-.25.877-.507 1.766-.774 2.664 1.032.367 2.042.753 3.035 1.152.196-.916.378-1.826.541-2.725.865.359 1.724.739 2.592 1.145a56.678 56.678 0 0 1-.339 2.766 84.32 84.32 0 0 1 3.03 1.428 42.2 42.2 0 0 0 .143-2.79c.883.458 1.77.943 2.666 1.454.041.935.044 1.87.005 2.801.542.296 1.072.593 1.594.893.005.146.007.292.01.439 6.682 3.917 11.654 8.134 14.189 11.153-3.715-2.74-8.545-5.783-14.218-8.672Zm-11.075-20.024c-17.533-5.882-36.558 2.81-40.74 8.092-.17.215-.33.44-.465.678-.014.025-.03.075-.051.093 1.236-1.014 2.608-1.209 2.608-1.209-2.172 1.005-2.075 3.173-1.704 3.977 3.163 7.738 13.043 20.448 27.911 25.441 15.15 5.081 30.88.971 37.928-3.471.82-.582 1.906-2.046.848-4.043 0 0 .826.844 1.258 2.199.183-1.316-.104-3.179-.835-5.36-2.825-8.406-12.239-21.525-26.758-26.397Z" clip-rule="evenodd"/>
</svg>
