<svg xmlns="http://www.w3.org/2000/svg" fill="none" viewBox="0 0 480 212">
  <path fill="#fff" fill-rule="evenodd" d="M478.716 211.524c-26.598-35.822-73.022-79.578-128.33-104.142l11.296 26.026c-47.03-23.686-99.308-40.69-158.57-40.42l12.63 13.674C106.273 110.95 42.052 165.233 0 211.524c.984-62.679 45.894-119.283 105.061-153.84L92.883 46.382c44.034-30.477 105.793-39.029 157.919-33.008L243.39 0c172.675 12.832 245.815 141.7 235.326 211.524Z" clip-rule="evenodd"/>
  <path fill="#0080C6" fill-rule="evenodd" d="m202.304 101.369-13.266-14.366c50.277-1.671 101.106 5.899 160.235 33.69l-10.893-25.1c44.515 17.247 93.837 49.439 135.194 99.373-3.642-75.608-79.999-173.58-218.881-187.59l7.722 13.931c-56.132-9.536-119.203.388-159.341 25.981l12.552 11.65C55.209 91.34 15.521 142.882 7.002 194.966c49.866-52.084 114.697-88.058 195.302-93.597Z" clip-rule="evenodd"/>
  <path fill="#FFC20E" fill-rule="evenodd" d="M451.901 154.376C428.367 91.029 357.584 36.414 278.124 23.339l9.334 16.633C239.6 25.168 170.053 26.065 124.337 49.92l13.114 12.172C95.55 80.047 51.338 118.5 33.838 153.833c28.7-25.887 91.139-55.852 142.362-62.22l-12.728-13.78c49.229-9.759 114.841-.1 161.616 18.893l-9.073-20.91c34.45 7.062 98.472 37.843 135.886 78.56Z" clip-rule="evenodd"/>
</svg>
