<svg xmlns="http://www.w3.org/2000/svg" fill="none" viewBox="0 0 480 454">
  <path fill="#fff" d="M479.054 173.69H297.393L239.526.638 181.654 173.69H-.001l148.834 106.554-57.135 173.151 147.828-105.597 147.839 105.394-57.152-172.942 148.84-106.559"/>
  <path fill="#024" d="M239.527 21.232 186.301 180.15H20.097l136.353 97.609-52.44 158.913 135.544-96.801 135.5 96.801-52.462-158.913L458.95 180.15H292.746l-53.22-158.918"/>
  <path fill="#fff" d="m239.527 65.031-42.801 128.72H62.1l110.449 79.066-42.476 128.714 109.784-78.401 109.118 78.401-42.476-128.709 110.455-79.071H282.322l-42.795-128.72"/>
  <path fill="#024" d="m239.527 102.887-33.64 101.688H99.545l87.245 62.463-33.563 101.688 86.739-61.941 85.854 61.941-33.569-101.683 87.251-62.469H273.16l-33.635-101.688"/>
</svg>
