<svg xmlns="http://www.w3.org/2000/svg" fill="none" viewBox="0 0 476 284">
  <path fill="#125740" d="M248.25 190.75h-2.75l-.75.75c.25 4.75.25 9.5 0 14.25l.75.75h2.75l.75-.75c.5-4.75.5-9.5 0-14.25l-.75-.75ZM231.5 190.75h-2.75l-.75.75c-.5 4.75-.5 9.5 0 14.25l.75.75h2.75l.75-.75c-.25-4.75-.25-9.5 0-14.25-.5-.25-.75-.5-.75-.75ZM239.75 190.75H237l-.75.75v14.25l.75.75h2.75l.75-.75V191.5l-.75-.75ZM277.75 92c.75 0 1.5-.25 2.25-.75.5-.5 1-1.25 1.5-2.25l3-5.75c.5-.75.75-1.5.75-2 0-1-.5-1.5-1.75-1.5-.75 0-1.5.25-2 .75s-1 1.25-1.75 2.25l-3 5.75c-.5.75-.75 1.5-.75 2 0 1 .75 1.5 1.75 1.5Z"/>
  <path fill="#125740" d="M407.25 137H377c.75-1.5 1.25-2.75 1.25-4.5 0-2.25-2.5-3.75-7-3.75-5.5 0-8.25 2.25-8.25 4.75 0 2.25 2.5 3 15.5 6s17.75 6 17.75 13c0 5.75-2.5 11.75-7.5 16.75C382.5 175.5 373 179.5 350 179.5c-27.5 0-35.5-4.5-35.5-14 0-2.75.5-5.75 2.25-8.75h30.75c-1 1.75-1.25 3.25-1.25 5 0 2.5 2.25 4 7 4 5.25 0 8.25-2 8.25-5.25 0-3-2.75-3.75-16.5-7.25-13-3.25-16.75-5.75-16.75-12.75 0-4.75 2.5-10.5 7.25-15.25 6.75-6.75 16.25-10.25 38.75-10.25 25 0 34.25 4 34.25 13.5.5 3 0 5.5-1.25 8.5ZM283 176c-3-2.25-6.5-4.25-10.5-6.5-7.5-4-15-6-21.25-7l16.25-30.75h-20.75L255 116h78.5l-8.25 15.75H306.5L283 176Zm-29.5 29.75c.25.25.5.5.5.75h2.75c.25-.25.5-.5 1-.75.25-1.5.5-3 .75-4.25 2.75 0 5.5 0 8.25-.25 9-.25 17.75-.5 26.75-1.25l1.5 1.75c-2 6.75-10.5 15-23.75 22-12 6.25-25.75 8-32.5 8h-.25c-6.75 0-20.5-1.75-32.5-8-13.25-7-21.75-15-23.75-22l1.5-1.75c9 .5 17.75 1 26.75 1.25 3 0 6.25.25 9.25.25 0 1.5.25 2.75.75 4.25.25.25.5.5 1 .75h2.75c.25-.25.5-.5.5-.75-.75-4.75-.75-9.25 0-14-.25-.25-.5-.5-.5-.75h-2.75c-.25.25-.5.5-1 .75-.25 1.5-.5 2.75-.75 4.25-3 0-6.25 0-9.25.25-9 .25-17.75.5-26.75 1.25l-1.5-2v-.5c2-6.75 10.5-15 23.75-22 12-6.5 25.75-8 32.5-8h.25c7 0 20.5 1.75 32.5 8 13.25 7 21.75 15.25 23.75 22v.75l-1.5 2c-9-.5-17.75-1-26.75-1.25-2.75 0-5.5-.25-8.25-.25 0-1.5-.25-3-.75-4.25-.25-.25-.5-.5-1-.75H254c-.25.25-.5.5-.5.75.75 4.25.75 9 0 13.75Zm-77.75-89.5h73l-8.25 15.5H203l-4.25 7.5h37.75l-8 15H191l-4.25 7.75h38.75l-.25.25c-6.25 1-14.25 3.25-21.75 7.25-4.75 2.5-9 5.25-12.5 8h-48l32.75-61.25Zm-73.5 63c-25 0-35.25-6-35.25-17.25 0-5.75 1.5-9.75 4.75-16l4-7.5H108l-8 15.25c-1 2-1.75 4-1.75 5.5 0 2.25 1 3.75 4 3.75 4.25 0 6.25-2.75 9-8l20.5-39.25h37.75l-17.25 32.75c-5 9.25-8 14.25-12.75 19.25-7.25 7.75-19.25 11.5-37.25 11.5Zm11.5-104.75h12.5l2.25 9.75 5-9.75h11l-12 22.5h-12l-2.25-10.5-5.5 10.5h-11l12-22.5Zm62.75 0-3 5.75h-13.75L158 83h12.75L168 88.5h-12.75l-1.5 2.75H168L165 97h-27.5l12-22.5h27Zm15.5 0L189.25 85 197 74.5h12.75l-3 10.5L215 74.5h12.25L207 97h-13.5l2-8.75L188 97h-13.5l4.25-22.5H192Zm44.5 0h13.75l-.25 7 7-7h12.75l-18 15.5-3.75 7h-14.25l4-7.5-1.25-15Zm59 1.25c2.25 1 3.25 2.75 3.25 4.75 0 1.5-.5 3.5-1.5 5.75-1.5 3.25-3.25 5.75-4.75 7.25-3 3-8 4.25-15.25 4.25-5.25 0-9-.5-11.25-1.75-2.25-1-3.25-2.75-3.25-4.75 0-1.5.5-3.5 1.5-5.75 1.5-3.25 3.25-5.75 4.75-7.25 3-3 8-4.25 15.25-4.25 5 0 8.75.5 11.25 1.75Zm32-1.25c2.75 0 4.75.5 5.75 1.5.75.75 1.25 2 1.25 3.25 0 2.25-.75 4-2.25 5.75-.75.75-1.75 1.5-2.5 1.75s-2 .75-3.5 1c2.25.75 3.25 1.75 3.25 3 0 .75-.25 1.75-.75 2.75L327 97h-14l2.25-4.5c.25-.5.5-1 .5-1.5 0-1-.5-1.5-1.75-1.5h-2l-4 7.25h-13.5l12-22.5h21v.25Zm29.25 0-5.5 10.25L362.5 74.5h12.75l-12.5 11 1.5 11.5h-13.5L350 87l-5.25 10h-14l12-22.5h14Zm105 55.75c-8-26.75-43-58.5-93.5-85.25C323.5 21.5 270.75 13.25 239 13.25h-1.5c-32 0-85 8.25-129.5 31.75-50.75 26.5-85.5 58.25-93.75 85.25-.75 3.75-1 7.75-1 11.75s.25 8 1 11.75c8 26.75 43 58.5 93.5 85.25 45 23.75 98 32 130 31.75h1c31.75 0 84.75-8.25 129.25-31.75 50.5-26.5 85.5-58.25 93.5-85.25.75-3.75 1-7.75 1-11.75.25-4-.25-8-.75-11.75Z"/>
  <path fill="#125740" d="m319.5 83.75.5-1c.25-.5.25-1 .25-1.25 0-.75-.5-1-1.5-1h-2l-3 5.25h2.5c1.5-.25 2.5-.75 3.25-2Z"/>
  <path fill="#fff" d="M203.5 169.75c7.75-4 15.5-6.25 21.75-7.25l.25-.5h-38.75l4.25-7.75h37.75l8-15H199l4.25-7.5h37.5l8.25-15.5h-73.25L143 177.75h47.75c3.75-2.75 8-5.5 12.75-8Zm-34-53.5h-37.75l-20.5 39.25c-2.75 5.25-5 8-9 8-2.75 0-4-1.5-4-3.75 0-1.5.75-3.75 1.75-5.5l8-15.25H75.75l-4 7.5c-3.5 6.25-4.75 10.25-4.75 16 0 11.25 10.25 17.25 35.25 17.25 18 0 30-3.75 37.25-11 5-5 8-10 12.75-19.25l17.25-33.25Zm205.25-1.5c-22.75 0-32 3.5-38.75 10.25-4.75 4.75-7.25 10.5-7.25 15.25 0 7 3.75 9.5 16.75 12.75 13.75 3.5 16.5 4.25 16.5 7.25 0 3.25-3 5.25-8.25 5.25-4.75 0-7-1.5-7-4 0-1.75.5-3.25 1.25-5h-30.75c-1.5 3.25-2.25 6-2.25 8.75 0 9.5 8 14 35.5 14 23.25 0 32.5-4 38.75-10.25 5-5 7.5-10.75 7.5-16.75 0-7-4.75-10-17.75-13s-15.5-4-15.5-6c0-2.5 2.75-4.75 8.25-4.75 4.5 0 7 1.5 7 3.75 0 1.75-.5 3-1.25 4.5h30.25c1.25-3 1.75-5.5 1.75-8.75-.5-9.25-9.5-13.25-34.75-13.25Zm-125.75 91-.75.75h-2.75l-.75-.75c.25-4.75.25-9.5 0-14.25l.75-.75h2.75l.75.75c.5 4.75.5 9.5 0 14.25Zm-8.5 0-.75.75H237l-.75-.75V191.5l.75-.75h2.75l.75.75c.25 4.75.25 9.5 0 14.25Zm-8.5 0-.75.75h-2.75l-.75-.75c-.5-4.75-.5-9.5 0-14.25l.75-.75h2.75l.75.75c-.25 4.75-.25 9.5 0 14.25ZM256.75 191c.25.25.5.5 1 .75.25 1.5.5 3 .75 4.25 2.75 0 5.5 0 8.25.25 9 .25 17.75.5 26.75 1.25l1.5-2v-.75c-2-6.75-10.5-15-23.75-22-12-6.25-25.75-8-32.5-8h-.25c-6.75 0-20.5 1.75-32.5 8-13.25 7-21.75 15.25-23.75 22v.5l1.5 2c9-.5 17.75-1 26.75-1.25 3 0 6.25-.25 9.25-.25 0-1.5.25-2.75.75-4.25.25-.25.5-.5 1-.75h2.75c.25.25.5.5.5.75-.75 4.75-.75 9.25 0 14-.25.25-.5.5-.5.75h-2.75c-.25-.25-.5-.5-1-.75-.25-1.5-.5-2.75-.75-4.25-3 0-6.25 0-9.25-.25-9-.25-17.75-.5-26.75-1.25l-1.5 1.75c2 6.75 10.5 15 23.75 22 12 6.5 25.75 8 32.5 8h.25c7 0 20.5-1.75 32.5-8 13.25-7 21.75-15.25 23.75-22l-1.5-1.75c-9 .5-17.75 1-26.75 1.25-2.75 0-5.5.25-8.25.25 0 1.5-.25 3-.75 4.25-.25.25-.5.5-1 .75H254c-.25-.25-.5-.5-.5-.75.75-4.75.75-9.25 0-14 .25-.25.5-.5.5-.75.75.25 1.75.25 2.75.25Zm206-49c0 4-.25 8-1 11.75-8 26.75-43 58.5-93.5 85.25-44.75 23.5-97.5 31.75-129.25 31.75h-1c-31.75 0-85-8.25-130-31.75-50.5-26.5-85.5-58.25-93.5-85.25-.75-3.75-1-7.75-1-11.75s.25-8 1-11.75c8-27 42.75-58.75 93.5-85.25 44.75-23.5 97.5-31.75 129.25-31.75h1.5c31.75 0 84.5 8.25 129.25 31.75 50.5 26.5 85.5 58.25 93.5 85.25.75 3.75 1.25 7.75 1.25 11.75Zm11.5-14.5-.25-.75c-9-30.5-45.5-64.5-100-93.25C327.25 9 272 .25 238.75.25h-1.5C204 .25 148.75 9 102 33.5 47.25 62.25 11 96.25 2 126.75l-.25.75C1 132.25.5 137 .5 142s.5 9.75 1.25 14.5l.25.75c9 30.5 45.5 64.5 100 93.25 46.75 24.5 102 33.25 135.25 33.25h1.5c33.25 0 88.5-8.75 135.25-33.25 54.5-28.75 91-62.75 100-93.25l.25-.75c1-4.75 1.25-9.75 1.25-14.5 0-5-.5-9.75-1.25-14.5Zm-356-40.75 2.25 10.5h11.75l12-22.5h-11l-5 9.75-2-10h-12.5l-12 22.5h11l5.5-10.25Zm215.5 29.5h-78.5L247 132h20.75l-16.25 30.75c6.25 1.25 13.75 3.25 21.25 7 3.75 2 7.25 4.25 10.5 6.5l23.5-44h18.75l8.25-16Zm11-19 5.25-10 .75 10h13.5l-1.5-11.5 12.5-11H362.5L351.25 85l5.5-10.25H343l-12 22.5h13.75Zm-180 0 3-5.75H153.5l1.5-2.75h13l3-5.5h-13l1.5-2.75h13.75l3-5.75H149.5l-12 22.5h27.25Zm83 0 3.75-7 18-15.5h-12.75l-7 7 .25-7h-13.75l1 15.25-4 7.5h14.5v-.25Zm29-9 3-5.75c.5-1 1-1.75 1.75-2.25.5-.5 1.25-.75 2-.75 1.25 0 1.75.5 1.75 1.5 0 .5-.25 1.25-.75 2l-3 5.75c-.5 1-1 1.75-1.5 2.25s-1.25.75-2.25.75c-1.25 0-1.75-.5-1.75-1.5 0-.25.25-1 .75-2Zm-12.5-2.75c-1 2.25-1.5 4-1.5 5.75 0 2.25 1 3.75 3.25 4.75s6 1.75 11.25 1.75c7.25 0 12.25-1.5 15.25-4.25 1.5-1.5 3.25-4 4.75-7.25 1-2.25 1.5-4 1.5-5.75 0-2.25-1-3.75-3.25-4.75s-6-1.75-11.25-1.75C277 74 272 75.5 269 78.25c-1.5 1.75-3.25 4-4.75 7.25Zm-76 11.75 7.5-8.75-2 8.75h13.5l20.25-22.5h-12.25L207 85.25l3-10.5h-12.75l-7.75 10.5 2.75-10.5h-13L175 97.25h13.25Zm128.75-17h2c1 0 1.5.25 1.5 1 0 .25 0 .75-.25 1.25l-.5 1c-.75 1.25-1.5 2-2.75 2h-2.5l2.5-5.25Zm-9 17 4-7.25h2c1.25 0 1.75.5 1.75 1.5 0 .5-.25 1-.5 1.5L313 97.5h13.75l1.75-3.5c.5-1 .75-2 .75-2.75 0-1.5-1-2.5-3.25-3 1.5-.25 2.5-.5 3.5-1s1.75-1 2.5-1.75c1.5-1.5 2.25-3.5 2.25-5.75 0-1.5-.5-2.5-1.25-3.25-1-1-3-1.5-5.75-1.5h-21l-12 22.5H308v-.25Z"/>
</svg>
