<svg xmlns="http://www.w3.org/2000/svg" fill="none" viewBox="0 0 460 332">
  <path fill="#003594" d="M403.853 57.076c-62.97-62.99-161.071-74.214-236.64-27.073a199.024 199.024 0 0 0-53.184 51.946c-.05.06-.102.119-.154.18h-39.46L0 250.496h96.542a153.91 153.91 0 0 0 60.938 61.815c49.257 27.108 109.45 24.842 156.531-5.891a14.803 14.803 0 0 0-7.925-27.186 15.065 15.065 0 0 0-4.347.646 102.775 102.775 0 0 1-29.664 4.343 101.436 101.436 0 0 1-75.772-33.727h90.153l15.483-21.573 60.094.006s-1.83 4.65-2.834 6.926l-6.452 14.647H451.1l2.094-7.696c18.065-66.279-.764-137.157-49.341-185.731Zm39.269 182.989h-74.374a150.499 150.499 0 0 0 7.615-21.578h-79.862L281.1 240.065h-71.591L316.544 90.122l-.013-.005a115.825 115.825 0 0 0-44.453-8.604c-1.945 0-3.877.05-5.796.148-58.066 2.925-104.373 49.542-104.373 106.422-.001 3.695.196 7.388.588 11.062h63.229l-18.828 26.492c-5.941 7.989-13.817 14.421-25.822 14.421h-5.154c18.877 32.552 54.907 54.593 96.16 54.593a113.17 113.17 0 0 0 32.674-4.785c.432-.133.88-.202 1.332-.205a4.369 4.369 0 0 1 2.213 8.019 141.706 141.706 0 0 1-205.348-57.615H16.022L81.212 92.57h37.666a141.627 141.627 0 0 1 108.909-55.208c1.024-.022 2.059-.033 3.083-.033 60.285 0 110.849 36.072 131.321 89.138l-37.066 51.93h56.437A151.499 151.499 0 0 0 172.741 38.855C235.937-.536 316.809 2.796 376.549 47.253c59.741 44.457 86.157 120.966 66.573 192.812Zm-209.781-51.356h-60.985c0-.205-.015-.415-.015-.624 0-51.164 41.492-93.334 94.47-96.002a108.084 108.084 0 0 1 33.035 3.463l-66.505 93.163Zm132.234-48.864a140.304 140.304 0 0 1 5.111 28.104h-25.164l20.053-28.104Z"/>
  <path fill="url(#a)" d="M172.741 38.855c57.151-23.362 122.761-9.706 165.843 34.52 43.082 44.226 55.015 110.171 30.164 166.69h74.374c19.603-71.85-6.808-148.373-66.556-192.835C316.819 2.768 235.935-.556 172.741 38.855Z"/>
  <path fill="#D7D2CB" d="m362.175 126.487-14.316 20.062a72.81 72.81 0 0 0-52.266-22.043c-1.229 0-2.448.031-3.657.093l24.607-34.477a104.624 104.624 0 0 1 45.632 36.365Zm14.188 92.001a151.456 151.456 0 0 0 5.199-39.457v-.642h-15.476a73.172 73.172 0 0 1-.513 40.098l10.79.001Z"/>
  <path fill="#FFD100" d="M308.296 297.689c-43.847 28.617-99.901 30.727-145.776 5.486a136.801 136.801 0 0 1-24.582-48.2c15.842-.737 38.785.632 55.743 7.921a111.71 111.71 0 0 0 78.398 31.764 113.174 113.174 0 0 0 32.674-4.785c.432-.133.88-.202 1.332-.205a4.37 4.37 0 0 1 2.211 8.019Zm-145.805-98.535a104.01 104.01 0 0 1-.59-11.062c0-56.885 46.312-103.501 104.379-106.422-67.32 2.74-122.452 52.915-131.861 117.49l28.072-.006Z"/>
  <path fill="#FFA300" d="M175.914 240.065h-41.233a134.62 134.62 0 0 0 3.252 14.912c15.843-.737 38.785.632 55.744 7.921a107.655 107.655 0 0 1-17.763-22.833Z"/>
  <path fill="#FF8200" d="M102.953 240.065a141.858 141.858 0 0 0 19.271 29.932 47.259 47.259 0 0 1 15.71-15.02 134.397 134.397 0 0 1-3.253-14.912h-31.728Z"/>
  <path fill="url(#b)" d="M316.531 90.117a115.829 115.829 0 0 0-44.453-8.604c-1.945 0-3.878.05-5.796.148-67.32 2.74-122.451 52.915-131.86 117.49H96.091L143.306 92.57h-24.428a141.625 141.625 0 0 1 108.908-55.208c1.025-.022 2.06-.033 3.083-.033 60.286 0 110.851 36.072 131.323 89.138l-.016.023a104.613 104.613 0 0 0-45.645-36.373ZM137.933 254.974a47.265 47.265 0 0 0-15.709 15.02 142.368 142.368 0 0 0 40.294 33.18 136.82 136.82 0 0 1-24.583-48.2h-.002Z"/>
  <path fill="#fff" d="M368.635 197.543c0 7.093-1.03 14.149-3.06 20.945h-69.074L281.1 240.065h-71.59l82.426-115.468a76.476 76.476 0 0 1 3.657-.093 72.806 72.806 0 0 1 52.266 22.043l-22.734 31.846h40.959a73.165 73.165 0 0 1 2.551 19.15ZM81.211 92.57l-65.19 147.495H181.07c12.005 0 19.885-6.428 25.821-14.422l18.829-26.491H96.091L143.306 92.57H81.211Z"/>
  <defs>
    <linearGradient id="a" x1="311.119" x2="311.119" y1="11.435" y2="240.065" gradientUnits="userSpaceOnUse">
      <stop offset=".217" stop-color="#FFD100"/>
      <stop offset=".296" stop-color="#FFD724"/>
      <stop offset=".474" stop-color="#FFE87F"/>
      <stop offset=".707" stop-color="#fff"/>
    </linearGradient>
    <linearGradient id="b" x1="96.091" x2="362.192" y1="170.251" y2="170.251" gradientUnits="userSpaceOnUse">
      <stop stop-color="#FFA300"/>
      <stop offset=".134" stop-color="#FFA800"/>
      <stop offset=".289" stop-color="#FFB600"/>
      <stop offset=".453" stop-color="#FFCD00"/>
      <stop offset=".478" stop-color="#FFD100"/>
    </linearGradient>
  </defs>
</svg>
