<svg xmlns="http://www.w3.org/2000/svg" fill="none" viewBox="0 0 410 375">
  <path fill="#fff" d="M302.117 64.145c87.622 66.727 20.941 76.716-47.487 86.461 0 0-28.875-7.971-78.911-32.843-113.479-56.4-77.752-82.976 11.435-99.056C44.412-43.521-74.559 64.823 56.686 170.177l-36.014 25.762c29.583 18.148 90.878 56.218 81.973 114.516l-30.422 21.758 92.907 42.13 73.312-33.244c.532-32.286 58.195-49.055 83.006-114.729 136.58-31.358 101.793-151.583-19.332-162.224"/>
  <path fill="#03202F" d="m196.477 263.465-26.339-29.979-30.24 4.512 13.977-23.042-26.333-29.998 34.981 15.754 13.946-23.048 7.627 32.768 34.974 15.729-30.253 4.524 7.659 32.78h.001Zm43.209-106.707C68.239 90.495 56.886 36.133 163.901 17.346 30.065-19.044-48 78.019 84.421 170.582l-35.532 25.417c37.73 25.223 77.714 62.584 64.15 121.377l-17.904 12.79 68.765 31.195c63.994-70.142 97.465-138.291 75.785-204.603h.001Z"/>
  <path fill="#A71930" d="M326.719 74.585c58.84 46.097 17.985 75.55-53.749 83.552 18.148 76.552-37.498 146.669-96.413 200.962l54.018-24.49c3.995-31.113 58.802-47.294 84.772-116.332 121.982-27.234 102.074-114.835 11.372-143.692"/>
</svg>
